<mxfile host="app.diagrams.net" modified="2024-04-10T16:07:04.320Z" agent="Mozilla/5.0 (Windows NT 10.0; Win64; x64) AppleWebKit/537.36 (KHTML, like Gecko) Chrome/123.0.0.0 Safari/537.36" etag="QUs-BaNASGbm2tWlLoWC" version="23.0.0" type="google" pages="2">
  <diagram name="Page-1" id="imkHwuTyhQrSmMCx-L6D">
    <mxGraphModel grid="0" page="0" gridSize="10" guides="0" tooltips="1" connect="1" arrows="1" fold="1" pageScale="1" pageWidth="850" pageHeight="1100" math="0" shadow="0">
      <root>
        <mxCell id="0" />
        <mxCell id="1" parent="0" />
        <mxCell id="Bx3vxFHgFfsMStbkMMY--2" value="historical_stock_value" style="swimlane;fontStyle=0;childLayout=stackLayout;horizontal=1;startSize=26;fillColor=none;horizontalStack=0;resizeParent=1;resizeParentMax=0;resizeLast=0;collapsible=1;marginBottom=0;whiteSpace=wrap;html=1;" vertex="1" parent="1">
          <mxGeometry x="-570" y="600" width="200" height="388" as="geometry" />
        </mxCell>
        <mxCell id="Bx3vxFHgFfsMStbkMMY--3" value="company_id: bigint" style="text;strokeColor=none;fillColor=none;align=left;verticalAlign=top;spacingLeft=4;spacingRight=4;overflow=hidden;rotatable=0;points=[[0,0.5],[1,0.5]];portConstraint=eastwest;whiteSpace=wrap;html=1;" vertex="1" parent="Bx3vxFHgFfsMStbkMMY--2">
          <mxGeometry y="26" width="200" height="26" as="geometry" />
        </mxCell>
        <mxCell id="Bx3vxFHgFfsMStbkMMY--5" value="&lt;div&gt;date: datetime&lt;/div&gt;" style="text;strokeColor=none;fillColor=none;align=left;verticalAlign=top;spacingLeft=4;spacingRight=4;overflow=hidden;rotatable=0;points=[[0,0.5],[1,0.5]];portConstraint=eastwest;whiteSpace=wrap;html=1;" vertex="1" parent="Bx3vxFHgFfsMStbkMMY--2">
          <mxGeometry y="52" width="200" height="28" as="geometry" />
        </mxCell>
        <mxCell id="Bx3vxFHgFfsMStbkMMY--45" value="open: decimal" style="text;strokeColor=none;fillColor=none;align=left;verticalAlign=top;spacingLeft=4;spacingRight=4;overflow=hidden;rotatable=0;points=[[0,0.5],[1,0.5]];portConstraint=eastwest;whiteSpace=wrap;html=1;" vertex="1" parent="Bx3vxFHgFfsMStbkMMY--2">
          <mxGeometry y="80" width="200" height="28" as="geometry" />
        </mxCell>
        <mxCell id="Bx3vxFHgFfsMStbkMMY--44" value="high: decimal" style="text;strokeColor=none;fillColor=none;align=left;verticalAlign=top;spacingLeft=4;spacingRight=4;overflow=hidden;rotatable=0;points=[[0,0.5],[1,0.5]];portConstraint=eastwest;whiteSpace=wrap;html=1;" vertex="1" parent="Bx3vxFHgFfsMStbkMMY--2">
          <mxGeometry y="108" width="200" height="28" as="geometry" />
        </mxCell>
        <mxCell id="Bx3vxFHgFfsMStbkMMY--43" value="low: decimal" style="text;strokeColor=none;fillColor=none;align=left;verticalAlign=top;spacingLeft=4;spacingRight=4;overflow=hidden;rotatable=0;points=[[0,0.5],[1,0.5]];portConstraint=eastwest;whiteSpace=wrap;html=1;" vertex="1" parent="Bx3vxFHgFfsMStbkMMY--2">
          <mxGeometry y="136" width="200" height="28" as="geometry" />
        </mxCell>
        <mxCell id="Bx3vxFHgFfsMStbkMMY--42" value="close: decimal" style="text;strokeColor=none;fillColor=none;align=left;verticalAlign=top;spacingLeft=4;spacingRight=4;overflow=hidden;rotatable=0;points=[[0,0.5],[1,0.5]];portConstraint=eastwest;whiteSpace=wrap;html=1;" vertex="1" parent="Bx3vxFHgFfsMStbkMMY--2">
          <mxGeometry y="164" width="200" height="28" as="geometry" />
        </mxCell>
        <mxCell id="Bx3vxFHgFfsMStbkMMY--41" value="adjClose: decimal" style="text;strokeColor=none;fillColor=none;align=left;verticalAlign=top;spacingLeft=4;spacingRight=4;overflow=hidden;rotatable=0;points=[[0,0.5],[1,0.5]];portConstraint=eastwest;whiteSpace=wrap;html=1;" vertex="1" parent="Bx3vxFHgFfsMStbkMMY--2">
          <mxGeometry y="192" width="200" height="28" as="geometry" />
        </mxCell>
        <mxCell id="Bx3vxFHgFfsMStbkMMY--69" value="volume: decimal" style="text;strokeColor=none;fillColor=none;align=left;verticalAlign=top;spacingLeft=4;spacingRight=4;overflow=hidden;rotatable=0;points=[[0,0.5],[1,0.5]];portConstraint=eastwest;whiteSpace=wrap;html=1;" vertex="1" parent="Bx3vxFHgFfsMStbkMMY--2">
          <mxGeometry y="220" width="200" height="28" as="geometry" />
        </mxCell>
        <mxCell id="NYa0tjk2ZSPUIs098ws_-34" value="unadjustedVolume: decimal" style="text;strokeColor=none;fillColor=none;align=left;verticalAlign=top;spacingLeft=4;spacingRight=4;overflow=hidden;rotatable=0;points=[[0,0.5],[1,0.5]];portConstraint=eastwest;whiteSpace=wrap;html=1;" vertex="1" parent="Bx3vxFHgFfsMStbkMMY--2">
          <mxGeometry y="248" width="200" height="28" as="geometry" />
        </mxCell>
        <mxCell id="NYa0tjk2ZSPUIs098ws_-35" value="change: long" style="text;strokeColor=none;fillColor=none;align=left;verticalAlign=top;spacingLeft=4;spacingRight=4;overflow=hidden;rotatable=0;points=[[0,0.5],[1,0.5]];portConstraint=eastwest;whiteSpace=wrap;html=1;" vertex="1" parent="Bx3vxFHgFfsMStbkMMY--2">
          <mxGeometry y="276" width="200" height="28" as="geometry" />
        </mxCell>
        <mxCell id="NYa0tjk2ZSPUIs098ws_-36" value="changePercentage: decimal" style="text;strokeColor=none;fillColor=none;align=left;verticalAlign=top;spacingLeft=4;spacingRight=4;overflow=hidden;rotatable=0;points=[[0,0.5],[1,0.5]];portConstraint=eastwest;whiteSpace=wrap;html=1;" vertex="1" parent="Bx3vxFHgFfsMStbkMMY--2">
          <mxGeometry y="304" width="200" height="28" as="geometry" />
        </mxCell>
        <mxCell id="NYa0tjk2ZSPUIs098ws_-37" value="vwap: decimal" style="text;strokeColor=none;fillColor=none;align=left;verticalAlign=top;spacingLeft=4;spacingRight=4;overflow=hidden;rotatable=0;points=[[0,0.5],[1,0.5]];portConstraint=eastwest;whiteSpace=wrap;html=1;" vertex="1" parent="Bx3vxFHgFfsMStbkMMY--2">
          <mxGeometry y="332" width="200" height="28" as="geometry" />
        </mxCell>
        <mxCell id="NYa0tjk2ZSPUIs098ws_-39" value="cahngeOverTime: decimal" style="text;strokeColor=none;fillColor=none;align=left;verticalAlign=top;spacingLeft=4;spacingRight=4;overflow=hidden;rotatable=0;points=[[0,0.5],[1,0.5]];portConstraint=eastwest;whiteSpace=wrap;html=1;" vertex="1" parent="Bx3vxFHgFfsMStbkMMY--2">
          <mxGeometry y="360" width="200" height="28" as="geometry" />
        </mxCell>
        <mxCell id="Bx3vxFHgFfsMStbkMMY--6" value="companies" style="swimlane;fontStyle=0;childLayout=stackLayout;horizontal=1;startSize=26;fillColor=none;horizontalStack=0;resizeParent=1;resizeParentMax=0;resizeLast=0;collapsible=1;marginBottom=0;whiteSpace=wrap;html=1;" vertex="1" parent="1">
          <mxGeometry x="-50" y="20" width="200" height="104" as="geometry" />
        </mxCell>
        <mxCell id="Bx3vxFHgFfsMStbkMMY--7" value="id: bigint" style="text;strokeColor=none;fillColor=none;align=left;verticalAlign=top;spacingLeft=4;spacingRight=4;overflow=hidden;rotatable=0;points=[[0,0.5],[1,0.5]];portConstraint=eastwest;whiteSpace=wrap;html=1;" vertex="1" parent="Bx3vxFHgFfsMStbkMMY--6">
          <mxGeometry y="26" width="200" height="26" as="geometry" />
        </mxCell>
        <mxCell id="Bx3vxFHgFfsMStbkMMY--52" value="companyName: string" style="text;strokeColor=none;fillColor=none;align=left;verticalAlign=top;spacingLeft=4;spacingRight=4;overflow=hidden;rotatable=0;points=[[0,0.5],[1,0.5]];portConstraint=eastwest;whiteSpace=wrap;html=1;" vertex="1" parent="Bx3vxFHgFfsMStbkMMY--6">
          <mxGeometry y="52" width="200" height="26" as="geometry" />
        </mxCell>
        <mxCell id="Bx3vxFHgFfsMStbkMMY--51" value="symbol: string" style="text;strokeColor=none;fillColor=none;align=left;verticalAlign=top;spacingLeft=4;spacingRight=4;overflow=hidden;rotatable=0;points=[[0,0.5],[1,0.5]];portConstraint=eastwest;whiteSpace=wrap;html=1;" vertex="1" parent="Bx3vxFHgFfsMStbkMMY--6">
          <mxGeometry y="78" width="200" height="26" as="geometry" />
        </mxCell>
        <mxCell id="NYa0tjk2ZSPUIs098ws_-33" style="edgeStyle=orthogonalEdgeStyle;rounded=0;orthogonalLoop=1;jettySize=auto;html=1;exitX=1;exitY=0.5;exitDx=0;exitDy=0;endArrow=ERzeroToMany;endFill=0;startArrow=ERone;startFill=0;startSize=16;endSize=16;entryX=0;entryY=0.5;entryDx=0;entryDy=0;" edge="1" parent="1" source="Bx3vxFHgFfsMStbkMMY--14" target="qmOc38xtJIlk9Kw8Ndon-5">
          <mxGeometry relative="1" as="geometry" />
        </mxCell>
        <mxCell id="Bx3vxFHgFfsMStbkMMY--14" value="commodities" style="swimlane;fontStyle=0;childLayout=stackLayout;horizontal=1;startSize=26;fillColor=none;horizontalStack=0;resizeParent=1;resizeParentMax=0;resizeLast=0;collapsible=1;marginBottom=0;whiteSpace=wrap;html=1;" vertex="1" parent="1">
          <mxGeometry x="-300" y="790" width="140" height="104" as="geometry" />
        </mxCell>
        <mxCell id="Bx3vxFHgFfsMStbkMMY--15" value="id: bigint" style="text;strokeColor=none;fillColor=none;align=left;verticalAlign=top;spacingLeft=4;spacingRight=4;overflow=hidden;rotatable=0;points=[[0,0.5],[1,0.5]];portConstraint=eastwest;whiteSpace=wrap;html=1;" vertex="1" parent="Bx3vxFHgFfsMStbkMMY--14">
          <mxGeometry y="26" width="140" height="26" as="geometry" />
        </mxCell>
        <mxCell id="Bx3vxFHgFfsMStbkMMY--16" value="commodityName: string" style="text;strokeColor=none;fillColor=none;align=left;verticalAlign=top;spacingLeft=4;spacingRight=4;overflow=hidden;rotatable=0;points=[[0,0.5],[1,0.5]];portConstraint=eastwest;whiteSpace=wrap;html=1;" vertex="1" parent="Bx3vxFHgFfsMStbkMMY--14">
          <mxGeometry y="52" width="140" height="26" as="geometry" />
        </mxCell>
        <mxCell id="Bx3vxFHgFfsMStbkMMY--17" value="symbol: string" style="text;strokeColor=none;fillColor=none;align=left;verticalAlign=top;spacingLeft=4;spacingRight=4;overflow=hidden;rotatable=0;points=[[0,0.5],[1,0.5]];portConstraint=eastwest;whiteSpace=wrap;html=1;" vertex="1" parent="Bx3vxFHgFfsMStbkMMY--14">
          <mxGeometry y="78" width="140" height="26" as="geometry" />
        </mxCell>
        <mxCell id="Bx3vxFHgFfsMStbkMMY--18" value="&lt;div&gt;realtime_index_values&lt;/div&gt;" style="swimlane;fontStyle=0;childLayout=stackLayout;horizontal=1;startSize=26;fillColor=none;horizontalStack=0;resizeParent=1;resizeParentMax=0;resizeLast=0;collapsible=1;marginBottom=0;whiteSpace=wrap;html=1;" vertex="1" parent="1">
          <mxGeometry x="-250" y="346" width="170" height="416" as="geometry" />
        </mxCell>
        <mxCell id="Bx3vxFHgFfsMStbkMMY--19" value="index_id: bigint" style="text;strokeColor=none;fillColor=none;align=left;verticalAlign=top;spacingLeft=4;spacingRight=4;overflow=hidden;rotatable=0;points=[[0,0.5],[1,0.5]];portConstraint=eastwest;whiteSpace=wrap;html=1;" vertex="1" parent="Bx3vxFHgFfsMStbkMMY--18">
          <mxGeometry y="26" width="170" height="26" as="geometry" />
        </mxCell>
        <mxCell id="Bx3vxFHgFfsMStbkMMY--20" value="date: datetime" style="text;strokeColor=none;fillColor=none;align=left;verticalAlign=top;spacingLeft=4;spacingRight=4;overflow=hidden;rotatable=0;points=[[0,0.5],[1,0.5]];portConstraint=eastwest;whiteSpace=wrap;html=1;" vertex="1" parent="Bx3vxFHgFfsMStbkMMY--18">
          <mxGeometry y="52" width="170" height="26" as="geometry" />
        </mxCell>
        <mxCell id="NYa0tjk2ZSPUIs098ws_-22" value="price: decimal" style="text;strokeColor=none;fillColor=none;align=left;verticalAlign=top;spacingLeft=4;spacingRight=4;overflow=hidden;rotatable=0;points=[[0,0.5],[1,0.5]];portConstraint=eastwest;whiteSpace=wrap;html=1;" vertex="1" parent="Bx3vxFHgFfsMStbkMMY--18">
          <mxGeometry y="78" width="170" height="26" as="geometry" />
        </mxCell>
        <mxCell id="NYa0tjk2ZSPUIs098ws_-21" value="changePercentage: decimal" style="text;strokeColor=none;fillColor=none;align=left;verticalAlign=top;spacingLeft=4;spacingRight=4;overflow=hidden;rotatable=0;points=[[0,0.5],[1,0.5]];portConstraint=eastwest;whiteSpace=wrap;html=1;" vertex="1" parent="Bx3vxFHgFfsMStbkMMY--18">
          <mxGeometry y="104" width="170" height="26" as="geometry" />
        </mxCell>
        <mxCell id="NYa0tjk2ZSPUIs098ws_-20" value="change: decimal" style="text;strokeColor=none;fillColor=none;align=left;verticalAlign=top;spacingLeft=4;spacingRight=4;overflow=hidden;rotatable=0;points=[[0,0.5],[1,0.5]];portConstraint=eastwest;whiteSpace=wrap;html=1;" vertex="1" parent="Bx3vxFHgFfsMStbkMMY--18">
          <mxGeometry y="130" width="170" height="26" as="geometry" />
        </mxCell>
        <mxCell id="NYa0tjk2ZSPUIs098ws_-19" value="dayHigh: decimal" style="text;strokeColor=none;fillColor=none;align=left;verticalAlign=top;spacingLeft=4;spacingRight=4;overflow=hidden;rotatable=0;points=[[0,0.5],[1,0.5]];portConstraint=eastwest;whiteSpace=wrap;html=1;" vertex="1" parent="Bx3vxFHgFfsMStbkMMY--18">
          <mxGeometry y="156" width="170" height="26" as="geometry" />
        </mxCell>
        <mxCell id="NYa0tjk2ZSPUIs098ws_-18" value="dayLow: decimal" style="text;strokeColor=none;fillColor=none;align=left;verticalAlign=top;spacingLeft=4;spacingRight=4;overflow=hidden;rotatable=0;points=[[0,0.5],[1,0.5]];portConstraint=eastwest;whiteSpace=wrap;html=1;" vertex="1" parent="Bx3vxFHgFfsMStbkMMY--18">
          <mxGeometry y="182" width="170" height="26" as="geometry" />
        </mxCell>
        <mxCell id="NYa0tjk2ZSPUIs098ws_-13" value="yearHigh: decimal" style="text;strokeColor=none;fillColor=none;align=left;verticalAlign=top;spacingLeft=4;spacingRight=4;overflow=hidden;rotatable=0;points=[[0,0.5],[1,0.5]];portConstraint=eastwest;whiteSpace=wrap;html=1;" vertex="1" parent="Bx3vxFHgFfsMStbkMMY--18">
          <mxGeometry y="208" width="170" height="26" as="geometry" />
        </mxCell>
        <mxCell id="NYa0tjk2ZSPUIs098ws_-12" value="yearLow: decimal" style="text;strokeColor=none;fillColor=none;align=left;verticalAlign=top;spacingLeft=4;spacingRight=4;overflow=hidden;rotatable=0;points=[[0,0.5],[1,0.5]];portConstraint=eastwest;whiteSpace=wrap;html=1;" vertex="1" parent="Bx3vxFHgFfsMStbkMMY--18">
          <mxGeometry y="234" width="170" height="26" as="geometry" />
        </mxCell>
        <mxCell id="NYa0tjk2ZSPUIs098ws_-23" value="mktCap: bigint" style="text;strokeColor=none;fillColor=none;align=left;verticalAlign=top;spacingLeft=4;spacingRight=4;overflow=hidden;rotatable=0;points=[[0,0.5],[1,0.5]];portConstraint=eastwest;whiteSpace=wrap;html=1;" vertex="1" parent="Bx3vxFHgFfsMStbkMMY--18">
          <mxGeometry y="260" width="170" height="26" as="geometry" />
        </mxCell>
        <mxCell id="sSEjyl8zTf9XCZ4fZCfU-18" value="exchange: varchar" style="text;strokeColor=none;fillColor=none;align=left;verticalAlign=top;spacingLeft=4;spacingRight=4;overflow=hidden;rotatable=0;points=[[0,0.5],[1,0.5]];portConstraint=eastwest;whiteSpace=wrap;html=1;" vertex="1" parent="Bx3vxFHgFfsMStbkMMY--18">
          <mxGeometry y="286" width="170" height="26" as="geometry" />
        </mxCell>
        <mxCell id="NYa0tjk2ZSPUIs098ws_-15" value="open: decimal" style="text;strokeColor=none;fillColor=none;align=left;verticalAlign=top;spacingLeft=4;spacingRight=4;overflow=hidden;rotatable=0;points=[[0,0.5],[1,0.5]];portConstraint=eastwest;whiteSpace=wrap;html=1;" vertex="1" parent="Bx3vxFHgFfsMStbkMMY--18">
          <mxGeometry y="312" width="170" height="26" as="geometry" />
        </mxCell>
        <mxCell id="NYa0tjk2ZSPUIs098ws_-14" value="close: decimal" style="text;strokeColor=none;fillColor=none;align=left;verticalAlign=top;spacingLeft=4;spacingRight=4;overflow=hidden;rotatable=0;points=[[0,0.5],[1,0.5]];portConstraint=eastwest;whiteSpace=wrap;html=1;" vertex="1" parent="Bx3vxFHgFfsMStbkMMY--18">
          <mxGeometry y="338" width="170" height="26" as="geometry" />
        </mxCell>
        <mxCell id="NYa0tjk2ZSPUIs098ws_-17" value="previousClose: decimal" style="text;strokeColor=none;fillColor=none;align=left;verticalAlign=top;spacingLeft=4;spacingRight=4;overflow=hidden;rotatable=0;points=[[0,0.5],[1,0.5]];portConstraint=eastwest;whiteSpace=wrap;html=1;" vertex="1" parent="Bx3vxFHgFfsMStbkMMY--18">
          <mxGeometry y="364" width="170" height="26" as="geometry" />
        </mxCell>
        <mxCell id="NYa0tjk2ZSPUIs098ws_-16" value="volume: bigint" style="text;strokeColor=none;fillColor=none;align=left;verticalAlign=top;spacingLeft=4;spacingRight=4;overflow=hidden;rotatable=0;points=[[0,0.5],[1,0.5]];portConstraint=eastwest;whiteSpace=wrap;html=1;" vertex="1" parent="Bx3vxFHgFfsMStbkMMY--18">
          <mxGeometry y="390" width="170" height="26" as="geometry" />
        </mxCell>
        <mxCell id="Bx3vxFHgFfsMStbkMMY--22" value="realtime_commodity_values" style="swimlane;fontStyle=0;childLayout=stackLayout;horizontal=1;startSize=26;fillColor=none;horizontalStack=0;resizeParent=1;resizeParentMax=0;resizeLast=0;collapsible=1;marginBottom=0;whiteSpace=wrap;html=1;" vertex="1" parent="1">
          <mxGeometry x="-80" y="780" width="180" height="416" as="geometry" />
        </mxCell>
        <mxCell id="Bx3vxFHgFfsMStbkMMY--23" value="commodity_id: bigint" style="text;strokeColor=none;fillColor=none;align=left;verticalAlign=top;spacingLeft=4;spacingRight=4;overflow=hidden;rotatable=0;points=[[0,0.5],[1,0.5]];portConstraint=eastwest;whiteSpace=wrap;html=1;" vertex="1" parent="Bx3vxFHgFfsMStbkMMY--22">
          <mxGeometry y="26" width="180" height="26" as="geometry" />
        </mxCell>
        <mxCell id="Bx3vxFHgFfsMStbkMMY--24" value="date: datetime" style="text;strokeColor=none;fillColor=none;align=left;verticalAlign=top;spacingLeft=4;spacingRight=4;overflow=hidden;rotatable=0;points=[[0,0.5],[1,0.5]];portConstraint=eastwest;whiteSpace=wrap;html=1;" vertex="1" parent="Bx3vxFHgFfsMStbkMMY--22">
          <mxGeometry y="52" width="180" height="26" as="geometry" />
        </mxCell>
        <mxCell id="Bx3vxFHgFfsMStbkMMY--25" value="price: decimal" style="text;strokeColor=none;fillColor=none;align=left;verticalAlign=top;spacingLeft=4;spacingRight=4;overflow=hidden;rotatable=0;points=[[0,0.5],[1,0.5]];portConstraint=eastwest;whiteSpace=wrap;html=1;" vertex="1" parent="Bx3vxFHgFfsMStbkMMY--22">
          <mxGeometry y="78" width="180" height="26" as="geometry" />
        </mxCell>
        <mxCell id="qmOc38xtJIlk9Kw8Ndon-5" value="changePercentage: decimal" style="text;strokeColor=none;fillColor=none;align=left;verticalAlign=top;spacingLeft=4;spacingRight=4;overflow=hidden;rotatable=0;points=[[0,0.5],[1,0.5]];portConstraint=eastwest;whiteSpace=wrap;html=1;" vertex="1" parent="Bx3vxFHgFfsMStbkMMY--22">
          <mxGeometry y="104" width="180" height="26" as="geometry" />
        </mxCell>
        <mxCell id="qmOc38xtJIlk9Kw8Ndon-6" value="change: decimal" style="text;strokeColor=none;fillColor=none;align=left;verticalAlign=top;spacingLeft=4;spacingRight=4;overflow=hidden;rotatable=0;points=[[0,0.5],[1,0.5]];portConstraint=eastwest;whiteSpace=wrap;html=1;" vertex="1" parent="Bx3vxFHgFfsMStbkMMY--22">
          <mxGeometry y="130" width="180" height="26" as="geometry" />
        </mxCell>
        <mxCell id="qmOc38xtJIlk9Kw8Ndon-7" value="dayHigh: decimal" style="text;strokeColor=none;fillColor=none;align=left;verticalAlign=top;spacingLeft=4;spacingRight=4;overflow=hidden;rotatable=0;points=[[0,0.5],[1,0.5]];portConstraint=eastwest;whiteSpace=wrap;html=1;" vertex="1" parent="Bx3vxFHgFfsMStbkMMY--22">
          <mxGeometry y="156" width="180" height="26" as="geometry" />
        </mxCell>
        <mxCell id="qmOc38xtJIlk9Kw8Ndon-8" value="dayLow: decimal" style="text;strokeColor=none;fillColor=none;align=left;verticalAlign=top;spacingLeft=4;spacingRight=4;overflow=hidden;rotatable=0;points=[[0,0.5],[1,0.5]];portConstraint=eastwest;whiteSpace=wrap;html=1;" vertex="1" parent="Bx3vxFHgFfsMStbkMMY--22">
          <mxGeometry y="182" width="180" height="26" as="geometry" />
        </mxCell>
        <mxCell id="NYa0tjk2ZSPUIs098ws_-31" value="yearHigh: decimal" style="text;strokeColor=none;fillColor=none;align=left;verticalAlign=top;spacingLeft=4;spacingRight=4;overflow=hidden;rotatable=0;points=[[0,0.5],[1,0.5]];portConstraint=eastwest;whiteSpace=wrap;html=1;" vertex="1" parent="Bx3vxFHgFfsMStbkMMY--22">
          <mxGeometry y="208" width="180" height="26" as="geometry" />
        </mxCell>
        <mxCell id="NYa0tjk2ZSPUIs098ws_-30" value="yearLow: decimal" style="text;strokeColor=none;fillColor=none;align=left;verticalAlign=top;spacingLeft=4;spacingRight=4;overflow=hidden;rotatable=0;points=[[0,0.5],[1,0.5]];portConstraint=eastwest;whiteSpace=wrap;html=1;" vertex="1" parent="Bx3vxFHgFfsMStbkMMY--22">
          <mxGeometry y="234" width="180" height="26" as="geometry" />
        </mxCell>
        <mxCell id="NYa0tjk2ZSPUIs098ws_-29" value="mktCap: bigint" style="text;strokeColor=none;fillColor=none;align=left;verticalAlign=top;spacingLeft=4;spacingRight=4;overflow=hidden;rotatable=0;points=[[0,0.5],[1,0.5]];portConstraint=eastwest;whiteSpace=wrap;html=1;" vertex="1" parent="Bx3vxFHgFfsMStbkMMY--22">
          <mxGeometry y="260" width="180" height="26" as="geometry" />
        </mxCell>
        <mxCell id="NYa0tjk2ZSPUIs098ws_-28" value="exchange: varchar" style="text;strokeColor=none;fillColor=none;align=left;verticalAlign=top;spacingLeft=4;spacingRight=4;overflow=hidden;rotatable=0;points=[[0,0.5],[1,0.5]];portConstraint=eastwest;whiteSpace=wrap;html=1;" vertex="1" parent="Bx3vxFHgFfsMStbkMMY--22">
          <mxGeometry y="286" width="180" height="26" as="geometry" />
        </mxCell>
        <mxCell id="NYa0tjk2ZSPUIs098ws_-27" value="open: decimal" style="text;strokeColor=none;fillColor=none;align=left;verticalAlign=top;spacingLeft=4;spacingRight=4;overflow=hidden;rotatable=0;points=[[0,0.5],[1,0.5]];portConstraint=eastwest;whiteSpace=wrap;html=1;" vertex="1" parent="Bx3vxFHgFfsMStbkMMY--22">
          <mxGeometry y="312" width="180" height="26" as="geometry" />
        </mxCell>
        <mxCell id="NYa0tjk2ZSPUIs098ws_-32" value="prevClose: decimal" style="text;strokeColor=none;fillColor=none;align=left;verticalAlign=top;spacingLeft=4;spacingRight=4;overflow=hidden;rotatable=0;points=[[0,0.5],[1,0.5]];portConstraint=eastwest;whiteSpace=wrap;html=1;" vertex="1" parent="Bx3vxFHgFfsMStbkMMY--22">
          <mxGeometry y="338" width="180" height="26" as="geometry" />
        </mxCell>
        <mxCell id="sSEjyl8zTf9XCZ4fZCfU-87" value="volume: decimal" style="text;strokeColor=none;fillColor=none;align=left;verticalAlign=top;spacingLeft=4;spacingRight=4;overflow=hidden;rotatable=0;points=[[0,0.5],[1,0.5]];portConstraint=eastwest;whiteSpace=wrap;html=1;" vertex="1" parent="Bx3vxFHgFfsMStbkMMY--22">
          <mxGeometry y="364" width="180" height="26" as="geometry" />
        </mxCell>
        <mxCell id="sSEjyl8zTf9XCZ4fZCfU-88" value="volAvg: decimal" style="text;strokeColor=none;fillColor=none;align=left;verticalAlign=top;spacingLeft=4;spacingRight=4;overflow=hidden;rotatable=0;points=[[0,0.5],[1,0.5]];portConstraint=eastwest;whiteSpace=wrap;html=1;" vertex="1" parent="Bx3vxFHgFfsMStbkMMY--22">
          <mxGeometry y="390" width="180" height="26" as="geometry" />
        </mxCell>
        <mxCell id="Bx3vxFHgFfsMStbkMMY--30" value="bond_values" style="swimlane;fontStyle=0;childLayout=stackLayout;horizontal=1;startSize=26;fillColor=none;horizontalStack=0;resizeParent=1;resizeParentMax=0;resizeLast=0;collapsible=1;marginBottom=0;whiteSpace=wrap;html=1;" vertex="1" parent="1">
          <mxGeometry x="285" y="620" width="140" height="390" as="geometry" />
        </mxCell>
        <mxCell id="Bx3vxFHgFfsMStbkMMY--31" value="bond_id: bigint" style="text;strokeColor=none;fillColor=none;align=left;verticalAlign=top;spacingLeft=4;spacingRight=4;overflow=hidden;rotatable=0;points=[[0,0.5],[1,0.5]];portConstraint=eastwest;whiteSpace=wrap;html=1;" vertex="1" parent="Bx3vxFHgFfsMStbkMMY--30">
          <mxGeometry y="26" width="140" height="26" as="geometry" />
        </mxCell>
        <mxCell id="Bx3vxFHgFfsMStbkMMY--32" value="date: datetime" style="text;strokeColor=none;fillColor=none;align=left;verticalAlign=top;spacingLeft=4;spacingRight=4;overflow=hidden;rotatable=0;points=[[0,0.5],[1,0.5]];portConstraint=eastwest;whiteSpace=wrap;html=1;" vertex="1" parent="Bx3vxFHgFfsMStbkMMY--30">
          <mxGeometry y="52" width="140" height="26" as="geometry" />
        </mxCell>
        <mxCell id="Bx3vxFHgFfsMStbkMMY--33" value="1_month: decimal" style="text;strokeColor=none;fillColor=none;align=left;verticalAlign=top;spacingLeft=4;spacingRight=4;overflow=hidden;rotatable=0;points=[[0,0.5],[1,0.5]];portConstraint=eastwest;whiteSpace=wrap;html=1;" vertex="1" parent="Bx3vxFHgFfsMStbkMMY--30">
          <mxGeometry y="78" width="140" height="26" as="geometry" />
        </mxCell>
        <mxCell id="sSEjyl8zTf9XCZ4fZCfU-61" value="2_month: decimal" style="text;strokeColor=none;fillColor=none;align=left;verticalAlign=top;spacingLeft=4;spacingRight=4;overflow=hidden;rotatable=0;points=[[0,0.5],[1,0.5]];portConstraint=eastwest;whiteSpace=wrap;html=1;" vertex="1" parent="Bx3vxFHgFfsMStbkMMY--30">
          <mxGeometry y="104" width="140" height="26" as="geometry" />
        </mxCell>
        <mxCell id="sSEjyl8zTf9XCZ4fZCfU-62" value="6_month: decimal" style="text;strokeColor=none;fillColor=none;align=left;verticalAlign=top;spacingLeft=4;spacingRight=4;overflow=hidden;rotatable=0;points=[[0,0.5],[1,0.5]];portConstraint=eastwest;whiteSpace=wrap;html=1;" vertex="1" parent="Bx3vxFHgFfsMStbkMMY--30">
          <mxGeometry y="130" width="140" height="26" as="geometry" />
        </mxCell>
        <mxCell id="sSEjyl8zTf9XCZ4fZCfU-63" value="3_month: decimal" style="text;strokeColor=none;fillColor=none;align=left;verticalAlign=top;spacingLeft=4;spacingRight=4;overflow=hidden;rotatable=0;points=[[0,0.5],[1,0.5]];portConstraint=eastwest;whiteSpace=wrap;html=1;" vertex="1" parent="Bx3vxFHgFfsMStbkMMY--30">
          <mxGeometry y="156" width="140" height="26" as="geometry" />
        </mxCell>
        <mxCell id="sSEjyl8zTf9XCZ4fZCfU-65" value="1_year: decimal" style="text;strokeColor=none;fillColor=none;align=left;verticalAlign=top;spacingLeft=4;spacingRight=4;overflow=hidden;rotatable=0;points=[[0,0.5],[1,0.5]];portConstraint=eastwest;whiteSpace=wrap;html=1;" vertex="1" parent="Bx3vxFHgFfsMStbkMMY--30">
          <mxGeometry y="182" width="140" height="26" as="geometry" />
        </mxCell>
        <mxCell id="sSEjyl8zTf9XCZ4fZCfU-64" value="2_year: decimal" style="text;strokeColor=none;fillColor=none;align=left;verticalAlign=top;spacingLeft=4;spacingRight=4;overflow=hidden;rotatable=0;points=[[0,0.5],[1,0.5]];portConstraint=eastwest;whiteSpace=wrap;html=1;" vertex="1" parent="Bx3vxFHgFfsMStbkMMY--30">
          <mxGeometry y="208" width="140" height="26" as="geometry" />
        </mxCell>
        <mxCell id="sSEjyl8zTf9XCZ4fZCfU-70" value="3_year: decimal" style="text;strokeColor=none;fillColor=none;align=left;verticalAlign=top;spacingLeft=4;spacingRight=4;overflow=hidden;rotatable=0;points=[[0,0.5],[1,0.5]];portConstraint=eastwest;whiteSpace=wrap;html=1;" vertex="1" parent="Bx3vxFHgFfsMStbkMMY--30">
          <mxGeometry y="234" width="140" height="26" as="geometry" />
        </mxCell>
        <mxCell id="sSEjyl8zTf9XCZ4fZCfU-66" value="5_year: decimal" style="text;strokeColor=none;fillColor=none;align=left;verticalAlign=top;spacingLeft=4;spacingRight=4;overflow=hidden;rotatable=0;points=[[0,0.5],[1,0.5]];portConstraint=eastwest;whiteSpace=wrap;html=1;" vertex="1" parent="Bx3vxFHgFfsMStbkMMY--30">
          <mxGeometry y="260" width="140" height="26" as="geometry" />
        </mxCell>
        <mxCell id="sSEjyl8zTf9XCZ4fZCfU-71" value="7_year: decimal" style="text;strokeColor=none;fillColor=none;align=left;verticalAlign=top;spacingLeft=4;spacingRight=4;overflow=hidden;rotatable=0;points=[[0,0.5],[1,0.5]];portConstraint=eastwest;whiteSpace=wrap;html=1;" vertex="1" parent="Bx3vxFHgFfsMStbkMMY--30">
          <mxGeometry y="286" width="140" height="26" as="geometry" />
        </mxCell>
        <mxCell id="sSEjyl8zTf9XCZ4fZCfU-69" value="10_year: decimal" style="text;strokeColor=none;fillColor=none;align=left;verticalAlign=top;spacingLeft=4;spacingRight=4;overflow=hidden;rotatable=0;points=[[0,0.5],[1,0.5]];portConstraint=eastwest;whiteSpace=wrap;html=1;" vertex="1" parent="Bx3vxFHgFfsMStbkMMY--30">
          <mxGeometry y="312" width="140" height="26" as="geometry" />
        </mxCell>
        <mxCell id="sSEjyl8zTf9XCZ4fZCfU-67" value="20_year: decimal" style="text;strokeColor=none;fillColor=none;align=left;verticalAlign=top;spacingLeft=4;spacingRight=4;overflow=hidden;rotatable=0;points=[[0,0.5],[1,0.5]];portConstraint=eastwest;whiteSpace=wrap;html=1;" vertex="1" parent="Bx3vxFHgFfsMStbkMMY--30">
          <mxGeometry y="338" width="140" height="26" as="geometry" />
        </mxCell>
        <mxCell id="sSEjyl8zTf9XCZ4fZCfU-68" value="30_year: decimal" style="text;strokeColor=none;fillColor=none;align=left;verticalAlign=top;spacingLeft=4;spacingRight=4;overflow=hidden;rotatable=0;points=[[0,0.5],[1,0.5]];portConstraint=eastwest;whiteSpace=wrap;html=1;" vertex="1" parent="Bx3vxFHgFfsMStbkMMY--30">
          <mxGeometry y="364" width="140" height="26" as="geometry" />
        </mxCell>
        <mxCell id="Bx3vxFHgFfsMStbkMMY--34" value="bonds" style="swimlane;fontStyle=1;childLayout=stackLayout;horizontal=1;startSize=26;fillColor=none;horizontalStack=0;resizeParent=1;resizeParentMax=0;resizeLast=0;collapsible=1;marginBottom=0;whiteSpace=wrap;html=1;" vertex="1" parent="1">
          <mxGeometry x="160" y="498" width="140" height="78" as="geometry" />
        </mxCell>
        <mxCell id="Bx3vxFHgFfsMStbkMMY--35" value="id: bigint" style="text;strokeColor=none;fillColor=none;align=left;verticalAlign=top;spacingLeft=4;spacingRight=4;overflow=hidden;rotatable=0;points=[[0,0.5],[1,0.5]];portConstraint=eastwest;whiteSpace=wrap;html=1;" vertex="1" parent="Bx3vxFHgFfsMStbkMMY--34">
          <mxGeometry y="26" width="140" height="26" as="geometry" />
        </mxCell>
        <mxCell id="NYa0tjk2ZSPUIs098ws_-25" value="treasuryName" style="text;strokeColor=none;fillColor=none;align=left;verticalAlign=top;spacingLeft=4;spacingRight=4;overflow=hidden;rotatable=0;points=[[0,0.5],[1,0.5]];portConstraint=eastwest;whiteSpace=wrap;html=1;" vertex="1" parent="Bx3vxFHgFfsMStbkMMY--34">
          <mxGeometry y="52" width="140" height="26" as="geometry" />
        </mxCell>
        <mxCell id="Bx3vxFHgFfsMStbkMMY--58" value="company_statements" style="swimlane;fontStyle=0;childLayout=stackLayout;horizontal=1;startSize=26;fillColor=none;horizontalStack=0;resizeParent=1;resizeParentMax=0;resizeLast=0;collapsible=1;marginBottom=0;whiteSpace=wrap;html=1;" vertex="1" parent="1">
          <mxGeometry x="460" width="210" height="670" as="geometry" />
        </mxCell>
        <mxCell id="Bx3vxFHgFfsMStbkMMY--59" value="company_id: bigint" style="text;strokeColor=none;fillColor=none;align=left;verticalAlign=top;spacingLeft=4;spacingRight=4;overflow=hidden;rotatable=0;points=[[0,0.5],[1,0.5]];portConstraint=eastwest;whiteSpace=wrap;html=1;" vertex="1" parent="Bx3vxFHgFfsMStbkMMY--58">
          <mxGeometry y="26" width="210" height="24" as="geometry" />
        </mxCell>
        <mxCell id="Bx3vxFHgFfsMStbkMMY--60" value="date: datetime" style="text;strokeColor=none;fillColor=none;align=left;verticalAlign=top;spacingLeft=4;spacingRight=4;overflow=hidden;rotatable=0;points=[[0,0.5],[1,0.5]];portConstraint=eastwest;whiteSpace=wrap;html=1;" vertex="1" parent="Bx3vxFHgFfsMStbkMMY--58">
          <mxGeometry y="50" width="210" height="20" as="geometry" />
        </mxCell>
        <mxCell id="Bx3vxFHgFfsMStbkMMY--67" value="price: decimal" style="text;strokeColor=none;fillColor=none;align=left;verticalAlign=top;spacingLeft=4;spacingRight=4;overflow=hidden;rotatable=0;points=[[0,0.5],[1,0.5]];portConstraint=eastwest;whiteSpace=wrap;html=1;" vertex="1" parent="Bx3vxFHgFfsMStbkMMY--58">
          <mxGeometry y="70" width="210" height="20" as="geometry" />
        </mxCell>
        <mxCell id="Bx3vxFHgFfsMStbkMMY--66" value="beta: decimal" style="text;strokeColor=none;fillColor=none;align=left;verticalAlign=top;spacingLeft=4;spacingRight=4;overflow=hidden;rotatable=0;points=[[0,0.5],[1,0.5]];portConstraint=eastwest;whiteSpace=wrap;html=1;" vertex="1" parent="Bx3vxFHgFfsMStbkMMY--58">
          <mxGeometry y="90" width="210" height="20" as="geometry" />
        </mxCell>
        <mxCell id="Bx3vxFHgFfsMStbkMMY--65" value="volAvg: decimal" style="text;strokeColor=none;fillColor=none;align=left;verticalAlign=top;spacingLeft=4;spacingRight=4;overflow=hidden;rotatable=0;points=[[0,0.5],[1,0.5]];portConstraint=eastwest;whiteSpace=wrap;html=1;" vertex="1" parent="Bx3vxFHgFfsMStbkMMY--58">
          <mxGeometry y="110" width="210" height="20" as="geometry" />
        </mxCell>
        <mxCell id="Bx3vxFHgFfsMStbkMMY--64" value="marketCap: bigint" style="text;strokeColor=none;fillColor=none;align=left;verticalAlign=top;spacingLeft=4;spacingRight=4;overflow=hidden;rotatable=0;points=[[0,0.5],[1,0.5]];portConstraint=eastwest;whiteSpace=wrap;html=1;" vertex="1" parent="Bx3vxFHgFfsMStbkMMY--58">
          <mxGeometry y="130" width="210" height="20" as="geometry" />
        </mxCell>
        <mxCell id="Bx3vxFHgFfsMStbkMMY--63" value="lastDive: decimal" style="text;strokeColor=none;fillColor=none;align=left;verticalAlign=top;spacingLeft=4;spacingRight=4;overflow=hidden;rotatable=0;points=[[0,0.5],[1,0.5]];portConstraint=eastwest;whiteSpace=wrap;html=1;" vertex="1" parent="Bx3vxFHgFfsMStbkMMY--58">
          <mxGeometry y="150" width="210" height="20" as="geometry" />
        </mxCell>
        <mxCell id="Bx3vxFHgFfsMStbkMMY--62" value="changes: decimal" style="text;strokeColor=none;fillColor=none;align=left;verticalAlign=top;spacingLeft=4;spacingRight=4;overflow=hidden;rotatable=0;points=[[0,0.5],[1,0.5]];portConstraint=eastwest;whiteSpace=wrap;html=1;" vertex="1" parent="Bx3vxFHgFfsMStbkMMY--58">
          <mxGeometry y="170" width="210" height="20" as="geometry" />
        </mxCell>
        <mxCell id="Bx3vxFHgFfsMStbkMMY--75" value="currency: varchar" style="text;strokeColor=none;fillColor=none;align=left;verticalAlign=top;spacingLeft=4;spacingRight=4;overflow=hidden;rotatable=0;points=[[0,0.5],[1,0.5]];portConstraint=eastwest;whiteSpace=wrap;html=1;" vertex="1" parent="Bx3vxFHgFfsMStbkMMY--58">
          <mxGeometry y="190" width="210" height="20" as="geometry" />
        </mxCell>
        <mxCell id="Bx3vxFHgFfsMStbkMMY--74" value="cik: varchar" style="text;strokeColor=none;fillColor=none;align=left;verticalAlign=top;spacingLeft=4;spacingRight=4;overflow=hidden;rotatable=0;points=[[0,0.5],[1,0.5]];portConstraint=eastwest;whiteSpace=wrap;html=1;" vertex="1" parent="Bx3vxFHgFfsMStbkMMY--58">
          <mxGeometry y="210" width="210" height="20" as="geometry" />
        </mxCell>
        <mxCell id="Bx3vxFHgFfsMStbkMMY--73" value="isin: varchar" style="text;strokeColor=none;fillColor=none;align=left;verticalAlign=top;spacingLeft=4;spacingRight=4;overflow=hidden;rotatable=0;points=[[0,0.5],[1,0.5]];portConstraint=eastwest;whiteSpace=wrap;html=1;" vertex="1" parent="Bx3vxFHgFfsMStbkMMY--58">
          <mxGeometry y="230" width="210" height="20" as="geometry" />
        </mxCell>
        <mxCell id="Bx3vxFHgFfsMStbkMMY--72" value="cusip: varchar" style="text;strokeColor=none;fillColor=none;align=left;verticalAlign=top;spacingLeft=4;spacingRight=4;overflow=hidden;rotatable=0;points=[[0,0.5],[1,0.5]];portConstraint=eastwest;whiteSpace=wrap;html=1;" vertex="1" parent="Bx3vxFHgFfsMStbkMMY--58">
          <mxGeometry y="250" width="210" height="20" as="geometry" />
        </mxCell>
        <mxCell id="Bx3vxFHgFfsMStbkMMY--71" value="exchangeFullName: decimal" style="text;strokeColor=none;fillColor=none;align=left;verticalAlign=top;spacingLeft=4;spacingRight=4;overflow=hidden;rotatable=0;points=[[0,0.5],[1,0.5]];portConstraint=eastwest;whiteSpace=wrap;html=1;" vertex="1" parent="Bx3vxFHgFfsMStbkMMY--58">
          <mxGeometry y="270" width="210" height="20" as="geometry" />
        </mxCell>
        <mxCell id="Bx3vxFHgFfsMStbkMMY--70" value="exchange: decimal" style="text;strokeColor=none;fillColor=none;align=left;verticalAlign=top;spacingLeft=4;spacingRight=4;overflow=hidden;rotatable=0;points=[[0,0.5],[1,0.5]];portConstraint=eastwest;whiteSpace=wrap;html=1;" vertex="1" parent="Bx3vxFHgFfsMStbkMMY--58">
          <mxGeometry y="290" width="210" height="20" as="geometry" />
        </mxCell>
        <mxCell id="sSEjyl8zTf9XCZ4fZCfU-40" value="industry: varchar" style="text;strokeColor=none;fillColor=none;align=left;verticalAlign=top;spacingLeft=4;spacingRight=4;overflow=hidden;rotatable=0;points=[[0,0.5],[1,0.5]];portConstraint=eastwest;whiteSpace=wrap;html=1;" vertex="1" parent="Bx3vxFHgFfsMStbkMMY--58">
          <mxGeometry y="310" width="210" height="20" as="geometry" />
        </mxCell>
        <mxCell id="sSEjyl8zTf9XCZ4fZCfU-41" value="ceo: varchar" style="text;strokeColor=none;fillColor=none;align=left;verticalAlign=top;spacingLeft=4;spacingRight=4;overflow=hidden;rotatable=0;points=[[0,0.5],[1,0.5]];portConstraint=eastwest;whiteSpace=wrap;html=1;" vertex="1" parent="Bx3vxFHgFfsMStbkMMY--58">
          <mxGeometry y="330" width="210" height="20" as="geometry" />
        </mxCell>
        <mxCell id="sSEjyl8zTf9XCZ4fZCfU-42" value="sector: varchar" style="text;strokeColor=none;fillColor=none;align=left;verticalAlign=top;spacingLeft=4;spacingRight=4;overflow=hidden;rotatable=0;points=[[0,0.5],[1,0.5]];portConstraint=eastwest;whiteSpace=wrap;html=1;" vertex="1" parent="Bx3vxFHgFfsMStbkMMY--58">
          <mxGeometry y="350" width="210" height="20" as="geometry" />
        </mxCell>
        <mxCell id="sSEjyl8zTf9XCZ4fZCfU-43" value="country: varchar" style="text;strokeColor=none;fillColor=none;align=left;verticalAlign=top;spacingLeft=4;spacingRight=4;overflow=hidden;rotatable=0;points=[[0,0.5],[1,0.5]];portConstraint=eastwest;whiteSpace=wrap;html=1;" vertex="1" parent="Bx3vxFHgFfsMStbkMMY--58">
          <mxGeometry y="370" width="210" height="20" as="geometry" />
        </mxCell>
        <mxCell id="sSEjyl8zTf9XCZ4fZCfU-44" value="fullTimeEmployees: bigint" style="text;strokeColor=none;fillColor=none;align=left;verticalAlign=top;spacingLeft=4;spacingRight=4;overflow=hidden;rotatable=0;points=[[0,0.5],[1,0.5]];portConstraint=eastwest;whiteSpace=wrap;html=1;" vertex="1" parent="Bx3vxFHgFfsMStbkMMY--58">
          <mxGeometry y="390" width="210" height="20" as="geometry" />
        </mxCell>
        <mxCell id="sSEjyl8zTf9XCZ4fZCfU-45" value="phone: varchar" style="text;strokeColor=none;fillColor=none;align=left;verticalAlign=top;spacingLeft=4;spacingRight=4;overflow=hidden;rotatable=0;points=[[0,0.5],[1,0.5]];portConstraint=eastwest;whiteSpace=wrap;html=1;" vertex="1" parent="Bx3vxFHgFfsMStbkMMY--58">
          <mxGeometry y="410" width="210" height="20" as="geometry" />
        </mxCell>
        <mxCell id="sSEjyl8zTf9XCZ4fZCfU-47" value="address: varchar" style="text;strokeColor=none;fillColor=none;align=left;verticalAlign=top;spacingLeft=4;spacingRight=4;overflow=hidden;rotatable=0;points=[[0,0.5],[1,0.5]];portConstraint=eastwest;whiteSpace=wrap;html=1;" vertex="1" parent="Bx3vxFHgFfsMStbkMMY--58">
          <mxGeometry y="430" width="210" height="20" as="geometry" />
        </mxCell>
        <mxCell id="sSEjyl8zTf9XCZ4fZCfU-49" value="city: varchar" style="text;strokeColor=none;fillColor=none;align=left;verticalAlign=top;spacingLeft=4;spacingRight=4;overflow=hidden;rotatable=0;points=[[0,0.5],[1,0.5]];portConstraint=eastwest;whiteSpace=wrap;html=1;" vertex="1" parent="Bx3vxFHgFfsMStbkMMY--58">
          <mxGeometry y="450" width="210" height="20" as="geometry" />
        </mxCell>
        <mxCell id="sSEjyl8zTf9XCZ4fZCfU-50" value="state: varchar" style="text;strokeColor=none;fillColor=none;align=left;verticalAlign=top;spacingLeft=4;spacingRight=4;overflow=hidden;rotatable=0;points=[[0,0.5],[1,0.5]];portConstraint=eastwest;whiteSpace=wrap;html=1;" vertex="1" parent="Bx3vxFHgFfsMStbkMMY--58">
          <mxGeometry y="470" width="210" height="20" as="geometry" />
        </mxCell>
        <mxCell id="sSEjyl8zTf9XCZ4fZCfU-46" value="zip: varchar" style="text;strokeColor=none;fillColor=none;align=left;verticalAlign=top;spacingLeft=4;spacingRight=4;overflow=hidden;rotatable=0;points=[[0,0.5],[1,0.5]];portConstraint=eastwest;whiteSpace=wrap;html=1;" vertex="1" parent="Bx3vxFHgFfsMStbkMMY--58">
          <mxGeometry y="490" width="210" height="20" as="geometry" />
        </mxCell>
        <mxCell id="sSEjyl8zTf9XCZ4fZCfU-48" value="dcfDiff: decimal" style="text;strokeColor=none;fillColor=none;align=left;verticalAlign=top;spacingLeft=4;spacingRight=4;overflow=hidden;rotatable=0;points=[[0,0.5],[1,0.5]];portConstraint=eastwest;whiteSpace=wrap;html=1;" vertex="1" parent="Bx3vxFHgFfsMStbkMMY--58">
          <mxGeometry y="510" width="210" height="20" as="geometry" />
        </mxCell>
        <mxCell id="sSEjyl8zTf9XCZ4fZCfU-52" value="dcf: decimal" style="text;strokeColor=none;fillColor=none;align=left;verticalAlign=top;spacingLeft=4;spacingRight=4;overflow=hidden;rotatable=0;points=[[0,0.5],[1,0.5]];portConstraint=eastwest;whiteSpace=wrap;html=1;" vertex="1" parent="Bx3vxFHgFfsMStbkMMY--58">
          <mxGeometry y="530" width="210" height="20" as="geometry" />
        </mxCell>
        <mxCell id="sSEjyl8zTf9XCZ4fZCfU-53" value="ipoDate: datetime" style="text;strokeColor=none;fillColor=none;align=left;verticalAlign=top;spacingLeft=4;spacingRight=4;overflow=hidden;rotatable=0;points=[[0,0.5],[1,0.5]];portConstraint=eastwest;whiteSpace=wrap;html=1;" vertex="1" parent="Bx3vxFHgFfsMStbkMMY--58">
          <mxGeometry y="550" width="210" height="20" as="geometry" />
        </mxCell>
        <mxCell id="sSEjyl8zTf9XCZ4fZCfU-54" value="isEtf: boolean" style="text;strokeColor=none;fillColor=none;align=left;verticalAlign=top;spacingLeft=4;spacingRight=4;overflow=hidden;rotatable=0;points=[[0,0.5],[1,0.5]];portConstraint=eastwest;whiteSpace=wrap;html=1;" vertex="1" parent="Bx3vxFHgFfsMStbkMMY--58">
          <mxGeometry y="570" width="210" height="20" as="geometry" />
        </mxCell>
        <mxCell id="sSEjyl8zTf9XCZ4fZCfU-56" value="isAdr: boolean" style="text;strokeColor=none;fillColor=none;align=left;verticalAlign=top;spacingLeft=4;spacingRight=4;overflow=hidden;rotatable=0;points=[[0,0.5],[1,0.5]];portConstraint=eastwest;whiteSpace=wrap;html=1;" vertex="1" parent="Bx3vxFHgFfsMStbkMMY--58">
          <mxGeometry y="590" width="210" height="20" as="geometry" />
        </mxCell>
        <mxCell id="sSEjyl8zTf9XCZ4fZCfU-57" value="isAdr: boolean" style="text;strokeColor=none;fillColor=none;align=left;verticalAlign=top;spacingLeft=4;spacingRight=4;overflow=hidden;rotatable=0;points=[[0,0.5],[1,0.5]];portConstraint=eastwest;whiteSpace=wrap;html=1;" vertex="1" parent="Bx3vxFHgFfsMStbkMMY--58">
          <mxGeometry y="610" width="210" height="20" as="geometry" />
        </mxCell>
        <mxCell id="sSEjyl8zTf9XCZ4fZCfU-55" value="isActivelyTrading: boolean" style="text;strokeColor=none;fillColor=none;align=left;verticalAlign=top;spacingLeft=4;spacingRight=4;overflow=hidden;rotatable=0;points=[[0,0.5],[1,0.5]];portConstraint=eastwest;whiteSpace=wrap;html=1;" vertex="1" parent="Bx3vxFHgFfsMStbkMMY--58">
          <mxGeometry y="630" width="210" height="20" as="geometry" />
        </mxCell>
        <mxCell id="sSEjyl8zTf9XCZ4fZCfU-51" value="isFund: boolean" style="text;strokeColor=none;fillColor=none;align=left;verticalAlign=top;spacingLeft=4;spacingRight=4;overflow=hidden;rotatable=0;points=[[0,0.5],[1,0.5]];portConstraint=eastwest;whiteSpace=wrap;html=1;" vertex="1" parent="Bx3vxFHgFfsMStbkMMY--58">
          <mxGeometry y="650" width="210" height="20" as="geometry" />
        </mxCell>
        <mxCell id="7wpnwW_8RB_nvAjm2Rfa-2" value="indexes" style="swimlane;fontStyle=0;childLayout=stackLayout;horizontal=1;startSize=26;fillColor=none;horizontalStack=0;resizeParent=1;resizeParentMax=0;resizeLast=0;collapsible=1;marginBottom=0;whiteSpace=wrap;html=1;" vertex="1" parent="1">
          <mxGeometry x="-130" y="186" width="140" height="104" as="geometry" />
        </mxCell>
        <mxCell id="7wpnwW_8RB_nvAjm2Rfa-3" value="id: bigint" style="text;strokeColor=none;fillColor=none;align=left;verticalAlign=top;spacingLeft=4;spacingRight=4;overflow=hidden;rotatable=0;points=[[0,0.5],[1,0.5]];portConstraint=eastwest;whiteSpace=wrap;html=1;" vertex="1" parent="7wpnwW_8RB_nvAjm2Rfa-2">
          <mxGeometry y="26" width="140" height="26" as="geometry" />
        </mxCell>
        <mxCell id="7wpnwW_8RB_nvAjm2Rfa-4" value="name: string" style="text;strokeColor=none;fillColor=none;align=left;verticalAlign=top;spacingLeft=4;spacingRight=4;overflow=hidden;rotatable=0;points=[[0,0.5],[1,0.5]];portConstraint=eastwest;whiteSpace=wrap;html=1;" vertex="1" parent="7wpnwW_8RB_nvAjm2Rfa-2">
          <mxGeometry y="52" width="140" height="26" as="geometry" />
        </mxCell>
        <mxCell id="7wpnwW_8RB_nvAjm2Rfa-5" value="symbol: string" style="text;strokeColor=none;fillColor=none;align=left;verticalAlign=top;spacingLeft=4;spacingRight=4;overflow=hidden;rotatable=0;points=[[0,0.5],[1,0.5]];portConstraint=eastwest;whiteSpace=wrap;html=1;" vertex="1" parent="7wpnwW_8RB_nvAjm2Rfa-2">
          <mxGeometry y="78" width="140" height="26" as="geometry" />
        </mxCell>
        <mxCell id="NYa0tjk2ZSPUIs098ws_-24" style="edgeStyle=orthogonalEdgeStyle;rounded=0;orthogonalLoop=1;jettySize=auto;html=1;exitX=0;exitY=0.5;exitDx=0;exitDy=0;endArrow=ERzeroToMany;endFill=0;endSize=16;startArrow=ERone;startFill=0;startSize=16;" edge="1" parent="1" source="7wpnwW_8RB_nvAjm2Rfa-4" target="Bx3vxFHgFfsMStbkMMY--18">
          <mxGeometry relative="1" as="geometry" />
        </mxCell>
        <mxCell id="NYa0tjk2ZSPUIs098ws_-26" style="edgeStyle=orthogonalEdgeStyle;rounded=0;orthogonalLoop=1;jettySize=auto;html=1;exitX=1;exitY=0.5;exitDx=0;exitDy=0;endArrow=ERzeroToMany;endFill=0;startArrow=ERone;startFill=0;startSize=16;endSize=16;" edge="1" parent="1" source="NYa0tjk2ZSPUIs098ws_-25" target="Bx3vxFHgFfsMStbkMMY--30">
          <mxGeometry relative="1" as="geometry" />
        </mxCell>
        <mxCell id="GhuGMLY7a80ECe5yHXwH-18" style="edgeStyle=orthogonalEdgeStyle;rounded=0;orthogonalLoop=1;jettySize=auto;html=1;endArrow=ERzeroToMany;endFill=0;endSize=16;startSize=16;startArrow=ERone;startFill=0;entryX=0;entryY=0.5;entryDx=0;entryDy=0;" edge="1" parent="1" source="Bx3vxFHgFfsMStbkMMY--7" target="Bx3vxFHgFfsMStbkMMY--60">
          <mxGeometry relative="1" as="geometry" />
        </mxCell>
        <mxCell id="NYa0tjk2ZSPUIs098ws_-41" value="realtime_stock_value" style="swimlane;fontStyle=0;childLayout=stackLayout;horizontal=1;startSize=26;fillColor=none;horizontalStack=0;resizeParent=1;resizeParentMax=0;resizeLast=0;collapsible=1;marginBottom=0;whiteSpace=wrap;html=1;" vertex="1" parent="1">
          <mxGeometry x="-570" y="20" width="200" height="556" as="geometry" />
        </mxCell>
        <mxCell id="NYa0tjk2ZSPUIs098ws_-42" value="company_id: bigint" style="text;strokeColor=none;fillColor=none;align=left;verticalAlign=top;spacingLeft=4;spacingRight=4;overflow=hidden;rotatable=0;points=[[0,0.5],[1,0.5]];portConstraint=eastwest;whiteSpace=wrap;html=1;" vertex="1" parent="NYa0tjk2ZSPUIs098ws_-41">
          <mxGeometry y="26" width="200" height="26" as="geometry" />
        </mxCell>
        <mxCell id="NYa0tjk2ZSPUIs098ws_-43" value="&lt;div&gt;date: datetime&lt;/div&gt;" style="text;strokeColor=none;fillColor=none;align=left;verticalAlign=top;spacingLeft=4;spacingRight=4;overflow=hidden;rotatable=0;points=[[0,0.5],[1,0.5]];portConstraint=eastwest;whiteSpace=wrap;html=1;" vertex="1" parent="NYa0tjk2ZSPUIs098ws_-41">
          <mxGeometry y="52" width="200" height="28" as="geometry" />
        </mxCell>
        <mxCell id="NYa0tjk2ZSPUIs098ws_-44" value="price: decimal" style="text;strokeColor=none;fillColor=none;align=left;verticalAlign=top;spacingLeft=4;spacingRight=4;overflow=hidden;rotatable=0;points=[[0,0.5],[1,0.5]];portConstraint=eastwest;whiteSpace=wrap;html=1;" vertex="1" parent="NYa0tjk2ZSPUIs098ws_-41">
          <mxGeometry y="80" width="200" height="28" as="geometry" />
        </mxCell>
        <mxCell id="NYa0tjk2ZSPUIs098ws_-45" value="changesPercentage: decimal" style="text;strokeColor=none;fillColor=none;align=left;verticalAlign=top;spacingLeft=4;spacingRight=4;overflow=hidden;rotatable=0;points=[[0,0.5],[1,0.5]];portConstraint=eastwest;whiteSpace=wrap;html=1;" vertex="1" parent="NYa0tjk2ZSPUIs098ws_-41">
          <mxGeometry y="108" width="200" height="28" as="geometry" />
        </mxCell>
        <mxCell id="NYa0tjk2ZSPUIs098ws_-46" value="change: decimal" style="text;strokeColor=none;fillColor=none;align=left;verticalAlign=top;spacingLeft=4;spacingRight=4;overflow=hidden;rotatable=0;points=[[0,0.5],[1,0.5]];portConstraint=eastwest;whiteSpace=wrap;html=1;" vertex="1" parent="NYa0tjk2ZSPUIs098ws_-41">
          <mxGeometry y="136" width="200" height="28" as="geometry" />
        </mxCell>
        <mxCell id="NYa0tjk2ZSPUIs098ws_-47" value="dayHigh: decimal" style="text;strokeColor=none;fillColor=none;align=left;verticalAlign=top;spacingLeft=4;spacingRight=4;overflow=hidden;rotatable=0;points=[[0,0.5],[1,0.5]];portConstraint=eastwest;whiteSpace=wrap;html=1;" vertex="1" parent="NYa0tjk2ZSPUIs098ws_-41">
          <mxGeometry y="164" width="200" height="28" as="geometry" />
        </mxCell>
        <mxCell id="NYa0tjk2ZSPUIs098ws_-48" value="dayLow: decimal" style="text;strokeColor=none;fillColor=none;align=left;verticalAlign=top;spacingLeft=4;spacingRight=4;overflow=hidden;rotatable=0;points=[[0,0.5],[1,0.5]];portConstraint=eastwest;whiteSpace=wrap;html=1;" vertex="1" parent="NYa0tjk2ZSPUIs098ws_-41">
          <mxGeometry y="192" width="200" height="28" as="geometry" />
        </mxCell>
        <mxCell id="NYa0tjk2ZSPUIs098ws_-49" value="yearHigh: decimal" style="text;strokeColor=none;fillColor=none;align=left;verticalAlign=top;spacingLeft=4;spacingRight=4;overflow=hidden;rotatable=0;points=[[0,0.5],[1,0.5]];portConstraint=eastwest;whiteSpace=wrap;html=1;" vertex="1" parent="NYa0tjk2ZSPUIs098ws_-41">
          <mxGeometry y="220" width="200" height="28" as="geometry" />
        </mxCell>
        <mxCell id="NYa0tjk2ZSPUIs098ws_-50" value="yearLow: decimal" style="text;strokeColor=none;fillColor=none;align=left;verticalAlign=top;spacingLeft=4;spacingRight=4;overflow=hidden;rotatable=0;points=[[0,0.5],[1,0.5]];portConstraint=eastwest;whiteSpace=wrap;html=1;" vertex="1" parent="NYa0tjk2ZSPUIs098ws_-41">
          <mxGeometry y="248" width="200" height="28" as="geometry" />
        </mxCell>
        <mxCell id="NYa0tjk2ZSPUIs098ws_-51" value="mktCap: long" style="text;strokeColor=none;fillColor=none;align=left;verticalAlign=top;spacingLeft=4;spacingRight=4;overflow=hidden;rotatable=0;points=[[0,0.5],[1,0.5]];portConstraint=eastwest;whiteSpace=wrap;html=1;" vertex="1" parent="NYa0tjk2ZSPUIs098ws_-41">
          <mxGeometry y="276" width="200" height="28" as="geometry" />
        </mxCell>
        <mxCell id="sSEjyl8zTf9XCZ4fZCfU-21" value="exchange: varchar" style="text;strokeColor=none;fillColor=none;align=left;verticalAlign=top;spacingLeft=4;spacingRight=4;overflow=hidden;rotatable=0;points=[[0,0.5],[1,0.5]];portConstraint=eastwest;whiteSpace=wrap;html=1;" vertex="1" parent="NYa0tjk2ZSPUIs098ws_-41">
          <mxGeometry y="304" width="200" height="28" as="geometry" />
        </mxCell>
        <mxCell id="NYa0tjk2ZSPUIs098ws_-52" value="open: decimal" style="text;strokeColor=none;fillColor=none;align=left;verticalAlign=top;spacingLeft=4;spacingRight=4;overflow=hidden;rotatable=0;points=[[0,0.5],[1,0.5]];portConstraint=eastwest;whiteSpace=wrap;html=1;" vertex="1" parent="NYa0tjk2ZSPUIs098ws_-41">
          <mxGeometry y="332" width="200" height="28" as="geometry" />
        </mxCell>
        <mxCell id="NYa0tjk2ZSPUIs098ws_-53" value="prevClose: decimal" style="text;strokeColor=none;fillColor=none;align=left;verticalAlign=top;spacingLeft=4;spacingRight=4;overflow=hidden;rotatable=0;points=[[0,0.5],[1,0.5]];portConstraint=eastwest;whiteSpace=wrap;html=1;" vertex="1" parent="NYa0tjk2ZSPUIs098ws_-41">
          <mxGeometry y="360" width="200" height="28" as="geometry" />
        </mxCell>
        <mxCell id="sSEjyl8zTf9XCZ4fZCfU-22" value="volume: bigint" style="text;strokeColor=none;fillColor=none;align=left;verticalAlign=top;spacingLeft=4;spacingRight=4;overflow=hidden;rotatable=0;points=[[0,0.5],[1,0.5]];portConstraint=eastwest;whiteSpace=wrap;html=1;" vertex="1" parent="NYa0tjk2ZSPUIs098ws_-41">
          <mxGeometry y="388" width="200" height="28" as="geometry" />
        </mxCell>
        <mxCell id="NYa0tjk2ZSPUIs098ws_-54" value="volAvg: decimal" style="text;strokeColor=none;fillColor=none;align=left;verticalAlign=top;spacingLeft=4;spacingRight=4;overflow=hidden;rotatable=0;points=[[0,0.5],[1,0.5]];portConstraint=eastwest;whiteSpace=wrap;html=1;" vertex="1" parent="NYa0tjk2ZSPUIs098ws_-41">
          <mxGeometry y="416" width="200" height="28" as="geometry" />
        </mxCell>
        <mxCell id="NYa0tjk2ZSPUIs098ws_-55" value="eps: decimal" style="text;strokeColor=none;fillColor=none;align=left;verticalAlign=top;spacingLeft=4;spacingRight=4;overflow=hidden;rotatable=0;points=[[0,0.5],[1,0.5]];portConstraint=eastwest;whiteSpace=wrap;html=1;" vertex="1" parent="NYa0tjk2ZSPUIs098ws_-41">
          <mxGeometry y="444" width="200" height="28" as="geometry" />
        </mxCell>
        <mxCell id="NYa0tjk2ZSPUIs098ws_-56" value="pe: decimal" style="text;strokeColor=none;fillColor=none;align=left;verticalAlign=top;spacingLeft=4;spacingRight=4;overflow=hidden;rotatable=0;points=[[0,0.5],[1,0.5]];portConstraint=eastwest;whiteSpace=wrap;html=1;" vertex="1" parent="NYa0tjk2ZSPUIs098ws_-41">
          <mxGeometry y="472" width="200" height="28" as="geometry" />
        </mxCell>
        <mxCell id="sSEjyl8zTf9XCZ4fZCfU-23" value="earningsAnnouncement: datetime" style="text;strokeColor=none;fillColor=none;align=left;verticalAlign=top;spacingLeft=4;spacingRight=4;overflow=hidden;rotatable=0;points=[[0,0.5],[1,0.5]];portConstraint=eastwest;whiteSpace=wrap;html=1;" vertex="1" parent="NYa0tjk2ZSPUIs098ws_-41">
          <mxGeometry y="500" width="200" height="28" as="geometry" />
        </mxCell>
        <mxCell id="sSEjyl8zTf9XCZ4fZCfU-24" value="sharesOutstanding: bigint" style="text;strokeColor=none;fillColor=none;align=left;verticalAlign=top;spacingLeft=4;spacingRight=4;overflow=hidden;rotatable=0;points=[[0,0.5],[1,0.5]];portConstraint=eastwest;whiteSpace=wrap;html=1;" vertex="1" parent="NYa0tjk2ZSPUIs098ws_-41">
          <mxGeometry y="528" width="200" height="28" as="geometry" />
        </mxCell>
        <mxCell id="GhuGMLY7a80ECe5yHXwH-24" style="edgeStyle=orthogonalEdgeStyle;rounded=0;orthogonalLoop=1;jettySize=auto;html=1;entryX=0;entryY=0.5;entryDx=0;entryDy=0;endArrow=ERone;endFill=0;startArrow=ERzeroToMany;startFill=0;endSize=16;startSize=16;" edge="1" parent="1" source="NYa0tjk2ZSPUIs098ws_-42" target="Bx3vxFHgFfsMStbkMMY--7">
          <mxGeometry relative="1" as="geometry" />
        </mxCell>
        <mxCell id="GhuGMLY7a80ECe5yHXwH-26" style="edgeStyle=orthogonalEdgeStyle;rounded=0;orthogonalLoop=1;jettySize=auto;html=1;endSize=16;startSize=16;endArrow=ERone;endFill=0;startArrow=ERzeroToMany;startFill=0;" edge="1" parent="1" source="Bx3vxFHgFfsMStbkMMY--3" target="Bx3vxFHgFfsMStbkMMY--7">
          <mxGeometry relative="1" as="geometry">
            <Array as="points">
              <mxPoint x="-280" y="639" />
              <mxPoint x="-280" y="59" />
            </Array>
          </mxGeometry>
        </mxCell>
        <mxCell id="sSEjyl8zTf9XCZ4fZCfU-1" value="&lt;div&gt;historical_index_values&lt;/div&gt;" style="swimlane;fontStyle=0;childLayout=stackLayout;horizontal=1;startSize=26;fillColor=none;horizontalStack=0;resizeParent=1;resizeParentMax=0;resizeLast=0;collapsible=1;marginBottom=0;whiteSpace=wrap;html=1;" vertex="1" parent="1">
          <mxGeometry x="-50" y="346" width="190" height="390" as="geometry" />
        </mxCell>
        <mxCell id="sSEjyl8zTf9XCZ4fZCfU-2" value="index_id: bigint" style="text;strokeColor=none;fillColor=none;align=left;verticalAlign=top;spacingLeft=4;spacingRight=4;overflow=hidden;rotatable=0;points=[[0,0.5],[1,0.5]];portConstraint=eastwest;whiteSpace=wrap;html=1;" vertex="1" parent="sSEjyl8zTf9XCZ4fZCfU-1">
          <mxGeometry y="26" width="190" height="26" as="geometry" />
        </mxCell>
        <mxCell id="sSEjyl8zTf9XCZ4fZCfU-3" value="date: datetime" style="text;strokeColor=none;fillColor=none;align=left;verticalAlign=top;spacingLeft=4;spacingRight=4;overflow=hidden;rotatable=0;points=[[0,0.5],[1,0.5]];portConstraint=eastwest;whiteSpace=wrap;html=1;" vertex="1" parent="sSEjyl8zTf9XCZ4fZCfU-1">
          <mxGeometry y="52" width="190" height="26" as="geometry" />
        </mxCell>
        <mxCell id="sSEjyl8zTf9XCZ4fZCfU-11" value="open: decimal" style="text;strokeColor=none;fillColor=none;align=left;verticalAlign=top;spacingLeft=4;spacingRight=4;overflow=hidden;rotatable=0;points=[[0,0.5],[1,0.5]];portConstraint=eastwest;whiteSpace=wrap;html=1;" vertex="1" parent="sSEjyl8zTf9XCZ4fZCfU-1">
          <mxGeometry y="78" width="190" height="26" as="geometry" />
        </mxCell>
        <mxCell id="sSEjyl8zTf9XCZ4fZCfU-7" value="high: decimal" style="text;strokeColor=none;fillColor=none;align=left;verticalAlign=top;spacingLeft=4;spacingRight=4;overflow=hidden;rotatable=0;points=[[0,0.5],[1,0.5]];portConstraint=eastwest;whiteSpace=wrap;html=1;" vertex="1" parent="sSEjyl8zTf9XCZ4fZCfU-1">
          <mxGeometry y="104" width="190" height="26" as="geometry" />
        </mxCell>
        <mxCell id="sSEjyl8zTf9XCZ4fZCfU-14" value="low: decimal" style="text;strokeColor=none;fillColor=none;align=left;verticalAlign=top;spacingLeft=4;spacingRight=4;overflow=hidden;rotatable=0;points=[[0,0.5],[1,0.5]];portConstraint=eastwest;whiteSpace=wrap;html=1;" vertex="1" parent="sSEjyl8zTf9XCZ4fZCfU-1">
          <mxGeometry y="130" width="190" height="26" as="geometry" />
        </mxCell>
        <mxCell id="sSEjyl8zTf9XCZ4fZCfU-6" value="close: decimal" style="text;strokeColor=none;fillColor=none;align=left;verticalAlign=top;spacingLeft=4;spacingRight=4;overflow=hidden;rotatable=0;points=[[0,0.5],[1,0.5]];portConstraint=eastwest;whiteSpace=wrap;html=1;" vertex="1" parent="sSEjyl8zTf9XCZ4fZCfU-1">
          <mxGeometry y="156" width="190" height="26" as="geometry" />
        </mxCell>
        <mxCell id="sSEjyl8zTf9XCZ4fZCfU-8" value="adjClose: decimal" style="text;strokeColor=none;fillColor=none;align=left;verticalAlign=top;spacingLeft=4;spacingRight=4;overflow=hidden;rotatable=0;points=[[0,0.5],[1,0.5]];portConstraint=eastwest;whiteSpace=wrap;html=1;" vertex="1" parent="sSEjyl8zTf9XCZ4fZCfU-1">
          <mxGeometry y="182" width="190" height="26" as="geometry" />
        </mxCell>
        <mxCell id="sSEjyl8zTf9XCZ4fZCfU-10" value="volume: decimal" style="text;strokeColor=none;fillColor=none;align=left;verticalAlign=top;spacingLeft=4;spacingRight=4;overflow=hidden;rotatable=0;points=[[0,0.5],[1,0.5]];portConstraint=eastwest;whiteSpace=wrap;html=1;" vertex="1" parent="sSEjyl8zTf9XCZ4fZCfU-1">
          <mxGeometry y="208" width="190" height="26" as="geometry" />
        </mxCell>
        <mxCell id="sSEjyl8zTf9XCZ4fZCfU-9" value="volume: bigint" style="text;strokeColor=none;fillColor=none;align=left;verticalAlign=top;spacingLeft=4;spacingRight=4;overflow=hidden;rotatable=0;points=[[0,0.5],[1,0.5]];portConstraint=eastwest;whiteSpace=wrap;html=1;" vertex="1" parent="sSEjyl8zTf9XCZ4fZCfU-1">
          <mxGeometry y="234" width="190" height="26" as="geometry" />
        </mxCell>
        <mxCell id="sSEjyl8zTf9XCZ4fZCfU-12" value="unadjustedVolume: bigint" style="text;strokeColor=none;fillColor=none;align=left;verticalAlign=top;spacingLeft=4;spacingRight=4;overflow=hidden;rotatable=0;points=[[0,0.5],[1,0.5]];portConstraint=eastwest;whiteSpace=wrap;html=1;" vertex="1" parent="sSEjyl8zTf9XCZ4fZCfU-1">
          <mxGeometry y="260" width="190" height="26" as="geometry" />
        </mxCell>
        <mxCell id="sSEjyl8zTf9XCZ4fZCfU-13" value="change: decimal" style="text;strokeColor=none;fillColor=none;align=left;verticalAlign=top;spacingLeft=4;spacingRight=4;overflow=hidden;rotatable=0;points=[[0,0.5],[1,0.5]];portConstraint=eastwest;whiteSpace=wrap;html=1;" vertex="1" parent="sSEjyl8zTf9XCZ4fZCfU-1">
          <mxGeometry y="286" width="190" height="26" as="geometry" />
        </mxCell>
        <mxCell id="sSEjyl8zTf9XCZ4fZCfU-15" value="changePercentage: decimal" style="text;strokeColor=none;fillColor=none;align=left;verticalAlign=top;spacingLeft=4;spacingRight=4;overflow=hidden;rotatable=0;points=[[0,0.5],[1,0.5]];portConstraint=eastwest;whiteSpace=wrap;html=1;" vertex="1" parent="sSEjyl8zTf9XCZ4fZCfU-1">
          <mxGeometry y="312" width="190" height="26" as="geometry" />
        </mxCell>
        <mxCell id="sSEjyl8zTf9XCZ4fZCfU-19" value="vwap: decimal" style="text;strokeColor=none;fillColor=none;align=left;verticalAlign=top;spacingLeft=4;spacingRight=4;overflow=hidden;rotatable=0;points=[[0,0.5],[1,0.5]];portConstraint=eastwest;whiteSpace=wrap;html=1;" vertex="1" parent="sSEjyl8zTf9XCZ4fZCfU-1">
          <mxGeometry y="338" width="190" height="26" as="geometry" />
        </mxCell>
        <mxCell id="sSEjyl8zTf9XCZ4fZCfU-20" value="changeOverTime: decimal" style="text;strokeColor=none;fillColor=none;align=left;verticalAlign=top;spacingLeft=4;spacingRight=4;overflow=hidden;rotatable=0;points=[[0,0.5],[1,0.5]];portConstraint=eastwest;whiteSpace=wrap;html=1;" vertex="1" parent="sSEjyl8zTf9XCZ4fZCfU-1">
          <mxGeometry y="364" width="190" height="26" as="geometry" />
        </mxCell>
        <mxCell id="sSEjyl8zTf9XCZ4fZCfU-16" style="edgeStyle=orthogonalEdgeStyle;rounded=0;orthogonalLoop=1;jettySize=auto;html=1;exitX=1;exitY=0.5;exitDx=0;exitDy=0;endArrow=ERzeroToMany;endFill=0;endSize=16;startArrow=ERone;startFill=0;startSize=16;entryX=0.5;entryY=0;entryDx=0;entryDy=0;" edge="1" parent="1" source="7wpnwW_8RB_nvAjm2Rfa-4" target="sSEjyl8zTf9XCZ4fZCfU-1">
          <mxGeometry relative="1" as="geometry">
            <mxPoint x="165" y="358" as="sourcePoint" />
            <mxPoint x="80" y="453" as="targetPoint" />
          </mxGeometry>
        </mxCell>
        <mxCell id="sSEjyl8zTf9XCZ4fZCfU-25" value="company_changelogs" style="swimlane;fontStyle=0;childLayout=stackLayout;horizontal=1;startSize=26;fillColor=none;horizontalStack=0;resizeParent=1;resizeParentMax=0;resizeLast=0;collapsible=1;marginBottom=0;whiteSpace=wrap;html=1;" vertex="1" parent="1">
          <mxGeometry x="160" y="186" width="250" height="234" as="geometry" />
        </mxCell>
        <mxCell id="sSEjyl8zTf9XCZ4fZCfU-26" value="company_id: bigint" style="text;strokeColor=none;fillColor=none;align=left;verticalAlign=top;spacingLeft=4;spacingRight=4;overflow=hidden;rotatable=0;points=[[0,0.5],[1,0.5]];portConstraint=eastwest;whiteSpace=wrap;html=1;" vertex="1" parent="sSEjyl8zTf9XCZ4fZCfU-25">
          <mxGeometry y="26" width="250" height="26" as="geometry" />
        </mxCell>
        <mxCell id="sSEjyl8zTf9XCZ4fZCfU-27" value="date: datetime" style="text;strokeColor=none;fillColor=none;align=left;verticalAlign=top;spacingLeft=4;spacingRight=4;overflow=hidden;rotatable=0;points=[[0,0.5],[1,0.5]];portConstraint=eastwest;whiteSpace=wrap;html=1;" vertex="1" parent="sSEjyl8zTf9XCZ4fZCfU-25">
          <mxGeometry y="52" width="250" height="26" as="geometry" />
        </mxCell>
        <mxCell id="sSEjyl8zTf9XCZ4fZCfU-28" value="companyName: varchar" style="text;strokeColor=none;fillColor=none;align=left;verticalAlign=top;spacingLeft=4;spacingRight=4;overflow=hidden;rotatable=0;points=[[0,0.5],[1,0.5]];portConstraint=eastwest;whiteSpace=wrap;html=1;" vertex="1" parent="sSEjyl8zTf9XCZ4fZCfU-25">
          <mxGeometry y="78" width="250" height="26" as="geometry" />
        </mxCell>
        <mxCell id="sSEjyl8zTf9XCZ4fZCfU-29" value="newCompanyName: varchar" style="text;strokeColor=none;fillColor=none;align=left;verticalAlign=top;spacingLeft=4;spacingRight=4;overflow=hidden;rotatable=0;points=[[0,0.5],[1,0.5]];portConstraint=eastwest;whiteSpace=wrap;html=1;" vertex="1" parent="sSEjyl8zTf9XCZ4fZCfU-25">
          <mxGeometry y="104" width="250" height="26" as="geometry" />
        </mxCell>
        <mxCell id="sSEjyl8zTf9XCZ4fZCfU-30" value="nameChanged: boolean" style="text;strokeColor=none;fillColor=none;align=left;verticalAlign=top;spacingLeft=4;spacingRight=4;overflow=hidden;rotatable=0;points=[[0,0.5],[1,0.5]];portConstraint=eastwest;whiteSpace=wrap;html=1;" vertex="1" parent="sSEjyl8zTf9XCZ4fZCfU-25">
          <mxGeometry y="130" width="250" height="26" as="geometry" />
        </mxCell>
        <mxCell id="sSEjyl8zTf9XCZ4fZCfU-31" value="symbol: varchar" style="text;strokeColor=none;fillColor=none;align=left;verticalAlign=top;spacingLeft=4;spacingRight=4;overflow=hidden;rotatable=0;points=[[0,0.5],[1,0.5]];portConstraint=eastwest;whiteSpace=wrap;html=1;" vertex="1" parent="sSEjyl8zTf9XCZ4fZCfU-25">
          <mxGeometry y="156" width="250" height="26" as="geometry" />
        </mxCell>
        <mxCell id="sSEjyl8zTf9XCZ4fZCfU-32" value="newSymbol: varchar" style="text;strokeColor=none;fillColor=none;align=left;verticalAlign=top;spacingLeft=4;spacingRight=4;overflow=hidden;rotatable=0;points=[[0,0.5],[1,0.5]];portConstraint=eastwest;whiteSpace=wrap;html=1;" vertex="1" parent="sSEjyl8zTf9XCZ4fZCfU-25">
          <mxGeometry y="182" width="250" height="26" as="geometry" />
        </mxCell>
        <mxCell id="sSEjyl8zTf9XCZ4fZCfU-33" value="symbolChanged: boolean" style="text;strokeColor=none;fillColor=none;align=left;verticalAlign=top;spacingLeft=4;spacingRight=4;overflow=hidden;rotatable=0;points=[[0,0.5],[1,0.5]];portConstraint=eastwest;whiteSpace=wrap;html=1;" vertex="1" parent="sSEjyl8zTf9XCZ4fZCfU-25">
          <mxGeometry y="208" width="250" height="26" as="geometry" />
        </mxCell>
        <mxCell id="sSEjyl8zTf9XCZ4fZCfU-58" style="edgeStyle=orthogonalEdgeStyle;rounded=0;orthogonalLoop=1;jettySize=auto;html=1;endArrow=ERzeroToMany;endFill=0;endSize=16;startSize=16;startArrow=ERone;startFill=0;exitX=1;exitY=0.5;exitDx=0;exitDy=0;entryX=0.5;entryY=0;entryDx=0;entryDy=0;" edge="1" parent="1" source="Bx3vxFHgFfsMStbkMMY--7" target="sSEjyl8zTf9XCZ4fZCfU-25">
          <mxGeometry relative="1" as="geometry">
            <mxPoint x="160" y="91" as="sourcePoint" />
            <mxPoint x="460" y="220" as="targetPoint" />
          </mxGeometry>
        </mxCell>
        <mxCell id="sSEjyl8zTf9XCZ4fZCfU-73" value="historical_commodity_values" style="swimlane;fontStyle=0;childLayout=stackLayout;horizontal=1;startSize=26;fillColor=none;horizontalStack=0;resizeParent=1;resizeParentMax=0;resizeLast=0;collapsible=1;marginBottom=0;whiteSpace=wrap;html=1;" vertex="1" parent="1">
          <mxGeometry x="-320" y="980" width="180" height="364" as="geometry" />
        </mxCell>
        <mxCell id="sSEjyl8zTf9XCZ4fZCfU-74" value="commodity_id: bigint" style="text;strokeColor=none;fillColor=none;align=left;verticalAlign=top;spacingLeft=4;spacingRight=4;overflow=hidden;rotatable=0;points=[[0,0.5],[1,0.5]];portConstraint=eastwest;whiteSpace=wrap;html=1;" vertex="1" parent="sSEjyl8zTf9XCZ4fZCfU-73">
          <mxGeometry y="26" width="180" height="26" as="geometry" />
        </mxCell>
        <mxCell id="sSEjyl8zTf9XCZ4fZCfU-75" value="date: datetime" style="text;strokeColor=none;fillColor=none;align=left;verticalAlign=top;spacingLeft=4;spacingRight=4;overflow=hidden;rotatable=0;points=[[0,0.5],[1,0.5]];portConstraint=eastwest;whiteSpace=wrap;html=1;" vertex="1" parent="sSEjyl8zTf9XCZ4fZCfU-73">
          <mxGeometry y="52" width="180" height="26" as="geometry" />
        </mxCell>
        <mxCell id="sSEjyl8zTf9XCZ4fZCfU-76" value="open: decimal" style="text;strokeColor=none;fillColor=none;align=left;verticalAlign=top;spacingLeft=4;spacingRight=4;overflow=hidden;rotatable=0;points=[[0,0.5],[1,0.5]];portConstraint=eastwest;whiteSpace=wrap;html=1;" vertex="1" parent="sSEjyl8zTf9XCZ4fZCfU-73">
          <mxGeometry y="78" width="180" height="26" as="geometry" />
        </mxCell>
        <mxCell id="sSEjyl8zTf9XCZ4fZCfU-77" value="high: decimal" style="text;strokeColor=none;fillColor=none;align=left;verticalAlign=top;spacingLeft=4;spacingRight=4;overflow=hidden;rotatable=0;points=[[0,0.5],[1,0.5]];portConstraint=eastwest;whiteSpace=wrap;html=1;" vertex="1" parent="sSEjyl8zTf9XCZ4fZCfU-73">
          <mxGeometry y="104" width="180" height="26" as="geometry" />
        </mxCell>
        <mxCell id="sSEjyl8zTf9XCZ4fZCfU-78" value="low: decimal" style="text;strokeColor=none;fillColor=none;align=left;verticalAlign=top;spacingLeft=4;spacingRight=4;overflow=hidden;rotatable=0;points=[[0,0.5],[1,0.5]];portConstraint=eastwest;whiteSpace=wrap;html=1;" vertex="1" parent="sSEjyl8zTf9XCZ4fZCfU-73">
          <mxGeometry y="130" width="180" height="26" as="geometry" />
        </mxCell>
        <mxCell id="sSEjyl8zTf9XCZ4fZCfU-79" value="close: decimal" style="text;strokeColor=none;fillColor=none;align=left;verticalAlign=top;spacingLeft=4;spacingRight=4;overflow=hidden;rotatable=0;points=[[0,0.5],[1,0.5]];portConstraint=eastwest;whiteSpace=wrap;html=1;" vertex="1" parent="sSEjyl8zTf9XCZ4fZCfU-73">
          <mxGeometry y="156" width="180" height="26" as="geometry" />
        </mxCell>
        <mxCell id="sSEjyl8zTf9XCZ4fZCfU-80" value="adjClose: decimal" style="text;strokeColor=none;fillColor=none;align=left;verticalAlign=top;spacingLeft=4;spacingRight=4;overflow=hidden;rotatable=0;points=[[0,0.5],[1,0.5]];portConstraint=eastwest;whiteSpace=wrap;html=1;" vertex="1" parent="sSEjyl8zTf9XCZ4fZCfU-73">
          <mxGeometry y="182" width="180" height="26" as="geometry" />
        </mxCell>
        <mxCell id="sSEjyl8zTf9XCZ4fZCfU-81" value="volume: decimal" style="text;strokeColor=none;fillColor=none;align=left;verticalAlign=top;spacingLeft=4;spacingRight=4;overflow=hidden;rotatable=0;points=[[0,0.5],[1,0.5]];portConstraint=eastwest;whiteSpace=wrap;html=1;" vertex="1" parent="sSEjyl8zTf9XCZ4fZCfU-73">
          <mxGeometry y="208" width="180" height="26" as="geometry" />
        </mxCell>
        <mxCell id="sSEjyl8zTf9XCZ4fZCfU-82" value="unadjustedVolume: decimal" style="text;strokeColor=none;fillColor=none;align=left;verticalAlign=top;spacingLeft=4;spacingRight=4;overflow=hidden;rotatable=0;points=[[0,0.5],[1,0.5]];portConstraint=eastwest;whiteSpace=wrap;html=1;" vertex="1" parent="sSEjyl8zTf9XCZ4fZCfU-73">
          <mxGeometry y="234" width="180" height="26" as="geometry" />
        </mxCell>
        <mxCell id="sSEjyl8zTf9XCZ4fZCfU-83" value="change: integer" style="text;strokeColor=none;fillColor=none;align=left;verticalAlign=top;spacingLeft=4;spacingRight=4;overflow=hidden;rotatable=0;points=[[0,0.5],[1,0.5]];portConstraint=eastwest;whiteSpace=wrap;html=1;" vertex="1" parent="sSEjyl8zTf9XCZ4fZCfU-73">
          <mxGeometry y="260" width="180" height="26" as="geometry" />
        </mxCell>
        <mxCell id="sSEjyl8zTf9XCZ4fZCfU-84" value="changePercent: decimal" style="text;strokeColor=none;fillColor=none;align=left;verticalAlign=top;spacingLeft=4;spacingRight=4;overflow=hidden;rotatable=0;points=[[0,0.5],[1,0.5]];portConstraint=eastwest;whiteSpace=wrap;html=1;" vertex="1" parent="sSEjyl8zTf9XCZ4fZCfU-73">
          <mxGeometry y="286" width="180" height="26" as="geometry" />
        </mxCell>
        <mxCell id="sSEjyl8zTf9XCZ4fZCfU-85" value="vwap: decimal" style="text;strokeColor=none;fillColor=none;align=left;verticalAlign=top;spacingLeft=4;spacingRight=4;overflow=hidden;rotatable=0;points=[[0,0.5],[1,0.5]];portConstraint=eastwest;whiteSpace=wrap;html=1;" vertex="1" parent="sSEjyl8zTf9XCZ4fZCfU-73">
          <mxGeometry y="312" width="180" height="26" as="geometry" />
        </mxCell>
        <mxCell id="sSEjyl8zTf9XCZ4fZCfU-86" value="changeOverTime: decimal" style="text;strokeColor=none;fillColor=none;align=left;verticalAlign=top;spacingLeft=4;spacingRight=4;overflow=hidden;rotatable=0;points=[[0,0.5],[1,0.5]];portConstraint=eastwest;whiteSpace=wrap;html=1;" vertex="1" parent="sSEjyl8zTf9XCZ4fZCfU-73">
          <mxGeometry y="338" width="180" height="26" as="geometry" />
        </mxCell>
        <mxCell id="sSEjyl8zTf9XCZ4fZCfU-89" style="edgeStyle=orthogonalEdgeStyle;rounded=0;orthogonalLoop=1;jettySize=auto;html=1;endArrow=ERzeroToMany;endFill=0;startArrow=ERone;startFill=0;startSize=16;endSize=16;" edge="1" parent="1" source="Bx3vxFHgFfsMStbkMMY--14" target="sSEjyl8zTf9XCZ4fZCfU-73">
          <mxGeometry relative="1" as="geometry">
            <mxPoint x="-290" y="924" as="sourcePoint" />
            <mxPoint x="-190" y="1080" as="targetPoint" />
          </mxGeometry>
        </mxCell>
        <mxCell id="GY_f5Kg6Vfdl_IaHVvsE-1" value="system_logs" style="swimlane;fontStyle=0;childLayout=stackLayout;horizontal=1;startSize=26;fillColor=none;horizontalStack=0;resizeParent=1;resizeParentMax=0;resizeLast=0;collapsible=1;marginBottom=0;whiteSpace=wrap;html=1;" vertex="1" parent="1">
          <mxGeometry x="502.5" y="712" width="125" height="182" as="geometry" />
        </mxCell>
        <mxCell id="GY_f5Kg6Vfdl_IaHVvsE-2" value="id: bigint" style="text;strokeColor=none;fillColor=none;align=left;verticalAlign=top;spacingLeft=4;spacingRight=4;overflow=hidden;rotatable=0;points=[[0,0.5],[1,0.5]];portConstraint=eastwest;whiteSpace=wrap;html=1;" vertex="1" parent="GY_f5Kg6Vfdl_IaHVvsE-1">
          <mxGeometry y="26" width="125" height="26" as="geometry" />
        </mxCell>
        <mxCell id="GY_f5Kg6Vfdl_IaHVvsE-4" value="date: datetime" style="text;strokeColor=none;fillColor=none;align=left;verticalAlign=top;spacingLeft=4;spacingRight=4;overflow=hidden;rotatable=0;points=[[0,0.5],[1,0.5]];portConstraint=eastwest;whiteSpace=wrap;html=1;" vertex="1" parent="GY_f5Kg6Vfdl_IaHVvsE-1">
          <mxGeometry y="52" width="125" height="26" as="geometry" />
        </mxCell>
        <mxCell id="GY_f5Kg6Vfdl_IaHVvsE-5" value="timezone: varchar" style="text;strokeColor=none;fillColor=none;align=left;verticalAlign=top;spacingLeft=4;spacingRight=4;overflow=hidden;rotatable=0;points=[[0,0.5],[1,0.5]];portConstraint=eastwest;whiteSpace=wrap;html=1;" vertex="1" parent="GY_f5Kg6Vfdl_IaHVvsE-1">
          <mxGeometry y="78" width="125" height="26" as="geometry" />
        </mxCell>
        <mxCell id="GY_f5Kg6Vfdl_IaHVvsE-6" value="level: varchar" style="text;strokeColor=none;fillColor=none;align=left;verticalAlign=top;spacingLeft=4;spacingRight=4;overflow=hidden;rotatable=0;points=[[0,0.5],[1,0.5]];portConstraint=eastwest;whiteSpace=wrap;html=1;" vertex="1" parent="GY_f5Kg6Vfdl_IaHVvsE-1">
          <mxGeometry y="104" width="125" height="26" as="geometry" />
        </mxCell>
        <mxCell id="GY_f5Kg6Vfdl_IaHVvsE-7" value="errLine: varchar" style="text;strokeColor=none;fillColor=none;align=left;verticalAlign=top;spacingLeft=4;spacingRight=4;overflow=hidden;rotatable=0;points=[[0,0.5],[1,0.5]];portConstraint=eastwest;whiteSpace=wrap;html=1;" vertex="1" parent="GY_f5Kg6Vfdl_IaHVvsE-1">
          <mxGeometry y="130" width="125" height="26" as="geometry" />
        </mxCell>
        <mxCell id="GY_f5Kg6Vfdl_IaHVvsE-17" value="message: varchar" style="text;strokeColor=none;fillColor=none;align=left;verticalAlign=top;spacingLeft=4;spacingRight=4;overflow=hidden;rotatable=0;points=[[0,0.5],[1,0.5]];portConstraint=eastwest;whiteSpace=wrap;html=1;" vertex="1" parent="GY_f5Kg6Vfdl_IaHVvsE-1">
          <mxGeometry y="156" width="125" height="26" as="geometry" />
        </mxCell>
        <mxCell id="ZbBSHXZaNOyqT1MngR9b-1" value="users" style="swimlane;fontStyle=0;childLayout=stackLayout;horizontal=1;startSize=26;fillColor=none;horizontalStack=0;resizeParent=1;resizeParentMax=0;resizeLast=0;collapsible=1;marginBottom=0;whiteSpace=wrap;html=1;" vertex="1" parent="1">
          <mxGeometry x="500" y="912" width="125" height="182" as="geometry" />
        </mxCell>
        <mxCell id="ZbBSHXZaNOyqT1MngR9b-2" value="id: bigint" style="text;strokeColor=none;fillColor=none;align=left;verticalAlign=top;spacingLeft=4;spacingRight=4;overflow=hidden;rotatable=0;points=[[0,0.5],[1,0.5]];portConstraint=eastwest;whiteSpace=wrap;html=1;" vertex="1" parent="ZbBSHXZaNOyqT1MngR9b-1">
          <mxGeometry y="26" width="125" height="26" as="geometry" />
        </mxCell>
        <mxCell id="ZbBSHXZaNOyqT1MngR9b-3" value="username: varchar" style="text;strokeColor=none;fillColor=none;align=left;verticalAlign=top;spacingLeft=4;spacingRight=4;overflow=hidden;rotatable=0;points=[[0,0.5],[1,0.5]];portConstraint=eastwest;whiteSpace=wrap;html=1;" vertex="1" parent="ZbBSHXZaNOyqT1MngR9b-1">
          <mxGeometry y="52" width="125" height="26" as="geometry" />
        </mxCell>
        <mxCell id="ZbBSHXZaNOyqT1MngR9b-4" value="password: varchar" style="text;strokeColor=none;fillColor=none;align=left;verticalAlign=top;spacingLeft=4;spacingRight=4;overflow=hidden;rotatable=0;points=[[0,0.5],[1,0.5]];portConstraint=eastwest;whiteSpace=wrap;html=1;" vertex="1" parent="ZbBSHXZaNOyqT1MngR9b-1">
          <mxGeometry y="78" width="125" height="26" as="geometry" />
        </mxCell>
        <mxCell id="ZbBSHXZaNOyqT1MngR9b-5" value="firstName: varchar" style="text;strokeColor=none;fillColor=none;align=left;verticalAlign=top;spacingLeft=4;spacingRight=4;overflow=hidden;rotatable=0;points=[[0,0.5],[1,0.5]];portConstraint=eastwest;whiteSpace=wrap;html=1;" vertex="1" parent="ZbBSHXZaNOyqT1MngR9b-1">
          <mxGeometry y="104" width="125" height="26" as="geometry" />
        </mxCell>
        <mxCell id="ZbBSHXZaNOyqT1MngR9b-6" value="lastName: varchar" style="text;strokeColor=none;fillColor=none;align=left;verticalAlign=top;spacingLeft=4;spacingRight=4;overflow=hidden;rotatable=0;points=[[0,0.5],[1,0.5]];portConstraint=eastwest;whiteSpace=wrap;html=1;" vertex="1" parent="ZbBSHXZaNOyqT1MngR9b-1">
          <mxGeometry y="130" width="125" height="26" as="geometry" />
        </mxCell>
        <mxCell id="ZbBSHXZaNOyqT1MngR9b-7" value="isAdmin: boolean" style="text;strokeColor=none;fillColor=none;align=left;verticalAlign=top;spacingLeft=4;spacingRight=4;overflow=hidden;rotatable=0;points=[[0,0.5],[1,0.5]];portConstraint=eastwest;whiteSpace=wrap;html=1;" vertex="1" parent="ZbBSHXZaNOyqT1MngR9b-1">
          <mxGeometry y="156" width="125" height="26" as="geometry" />
        </mxCell>
      </root>
    </mxGraphModel>
  </diagram>
  <diagram id="7QGbWdJ_fth-OOfZCyG3" name="Page-2">
    <mxGraphModel grid="1" page="1" gridSize="10" guides="1" tooltips="1" connect="1" arrows="1" fold="1" pageScale="1" pageWidth="850" pageHeight="1100" math="0" shadow="0">
      <root>
        <mxCell id="0" />
        <mxCell id="1" parent="0" />
        <mxCell id="CWdaM1fvxtPjJ_yS4xk5-1" value="historical_stock_value" style="swimlane;fontStyle=0;childLayout=stackLayout;horizontal=1;startSize=26;fillColor=none;horizontalStack=0;resizeParent=1;resizeParentMax=0;resizeLast=0;collapsible=1;marginBottom=0;whiteSpace=wrap;html=1;" vertex="1" parent="1">
          <mxGeometry x="150" y="512" width="200" height="444" as="geometry" />
        </mxCell>
        <mxCell id="CWdaM1fvxtPjJ_yS4xk5-2" value="company_id: bigint" style="text;strokeColor=none;fillColor=none;align=left;verticalAlign=top;spacingLeft=4;spacingRight=4;overflow=hidden;rotatable=0;points=[[0,0.5],[1,0.5]];portConstraint=eastwest;whiteSpace=wrap;html=1;" vertex="1" parent="CWdaM1fvxtPjJ_yS4xk5-1">
          <mxGeometry y="26" width="200" height="26" as="geometry" />
        </mxCell>
        <mxCell id="CWdaM1fvxtPjJ_yS4xk5-3" value="&lt;div&gt;date: datetime&lt;/div&gt;" style="text;strokeColor=none;fillColor=none;align=left;verticalAlign=top;spacingLeft=4;spacingRight=4;overflow=hidden;rotatable=0;points=[[0,0.5],[1,0.5]];portConstraint=eastwest;whiteSpace=wrap;html=1;" vertex="1" parent="CWdaM1fvxtPjJ_yS4xk5-1">
          <mxGeometry y="52" width="200" height="28" as="geometry" />
        </mxCell>
        <mxCell id="CWdaM1fvxtPjJ_yS4xk5-4" value="price: decimal" style="text;strokeColor=none;fillColor=none;align=left;verticalAlign=top;spacingLeft=4;spacingRight=4;overflow=hidden;rotatable=0;points=[[0,0.5],[1,0.5]];portConstraint=eastwest;whiteSpace=wrap;html=1;" vertex="1" parent="CWdaM1fvxtPjJ_yS4xk5-1">
          <mxGeometry y="80" width="200" height="28" as="geometry" />
        </mxCell>
        <mxCell id="CWdaM1fvxtPjJ_yS4xk5-5" value="changesPercentage: decimal" style="text;strokeColor=none;fillColor=none;align=left;verticalAlign=top;spacingLeft=4;spacingRight=4;overflow=hidden;rotatable=0;points=[[0,0.5],[1,0.5]];portConstraint=eastwest;whiteSpace=wrap;html=1;" vertex="1" parent="CWdaM1fvxtPjJ_yS4xk5-1">
          <mxGeometry y="108" width="200" height="28" as="geometry" />
        </mxCell>
        <mxCell id="CWdaM1fvxtPjJ_yS4xk5-6" value="change: decimal" style="text;strokeColor=none;fillColor=none;align=left;verticalAlign=top;spacingLeft=4;spacingRight=4;overflow=hidden;rotatable=0;points=[[0,0.5],[1,0.5]];portConstraint=eastwest;whiteSpace=wrap;html=1;" vertex="1" parent="CWdaM1fvxtPjJ_yS4xk5-1">
          <mxGeometry y="136" width="200" height="28" as="geometry" />
        </mxCell>
        <mxCell id="CWdaM1fvxtPjJ_yS4xk5-7" value="dayHigh: decimal" style="text;strokeColor=none;fillColor=none;align=left;verticalAlign=top;spacingLeft=4;spacingRight=4;overflow=hidden;rotatable=0;points=[[0,0.5],[1,0.5]];portConstraint=eastwest;whiteSpace=wrap;html=1;" vertex="1" parent="CWdaM1fvxtPjJ_yS4xk5-1">
          <mxGeometry y="164" width="200" height="28" as="geometry" />
        </mxCell>
        <mxCell id="CWdaM1fvxtPjJ_yS4xk5-8" value="dayLow: decimal" style="text;strokeColor=none;fillColor=none;align=left;verticalAlign=top;spacingLeft=4;spacingRight=4;overflow=hidden;rotatable=0;points=[[0,0.5],[1,0.5]];portConstraint=eastwest;whiteSpace=wrap;html=1;" vertex="1" parent="CWdaM1fvxtPjJ_yS4xk5-1">
          <mxGeometry y="192" width="200" height="28" as="geometry" />
        </mxCell>
        <mxCell id="CWdaM1fvxtPjJ_yS4xk5-9" value="yearHigh: decimal" style="text;strokeColor=none;fillColor=none;align=left;verticalAlign=top;spacingLeft=4;spacingRight=4;overflow=hidden;rotatable=0;points=[[0,0.5],[1,0.5]];portConstraint=eastwest;whiteSpace=wrap;html=1;" vertex="1" parent="CWdaM1fvxtPjJ_yS4xk5-1">
          <mxGeometry y="220" width="200" height="28" as="geometry" />
        </mxCell>
        <mxCell id="CWdaM1fvxtPjJ_yS4xk5-10" value="yearLow: decimal" style="text;strokeColor=none;fillColor=none;align=left;verticalAlign=top;spacingLeft=4;spacingRight=4;overflow=hidden;rotatable=0;points=[[0,0.5],[1,0.5]];portConstraint=eastwest;whiteSpace=wrap;html=1;" vertex="1" parent="CWdaM1fvxtPjJ_yS4xk5-1">
          <mxGeometry y="248" width="200" height="28" as="geometry" />
        </mxCell>
        <mxCell id="CWdaM1fvxtPjJ_yS4xk5-11" value="mktCap: long" style="text;strokeColor=none;fillColor=none;align=left;verticalAlign=top;spacingLeft=4;spacingRight=4;overflow=hidden;rotatable=0;points=[[0,0.5],[1,0.5]];portConstraint=eastwest;whiteSpace=wrap;html=1;" vertex="1" parent="CWdaM1fvxtPjJ_yS4xk5-1">
          <mxGeometry y="276" width="200" height="28" as="geometry" />
        </mxCell>
        <mxCell id="CWdaM1fvxtPjJ_yS4xk5-12" value="open: decimal" style="text;strokeColor=none;fillColor=none;align=left;verticalAlign=top;spacingLeft=4;spacingRight=4;overflow=hidden;rotatable=0;points=[[0,0.5],[1,0.5]];portConstraint=eastwest;whiteSpace=wrap;html=1;" vertex="1" parent="CWdaM1fvxtPjJ_yS4xk5-1">
          <mxGeometry y="304" width="200" height="28" as="geometry" />
        </mxCell>
        <mxCell id="CWdaM1fvxtPjJ_yS4xk5-13" value="prevClose: decimal" style="text;strokeColor=none;fillColor=none;align=left;verticalAlign=top;spacingLeft=4;spacingRight=4;overflow=hidden;rotatable=0;points=[[0,0.5],[1,0.5]];portConstraint=eastwest;whiteSpace=wrap;html=1;" vertex="1" parent="CWdaM1fvxtPjJ_yS4xk5-1">
          <mxGeometry y="332" width="200" height="28" as="geometry" />
        </mxCell>
        <mxCell id="CWdaM1fvxtPjJ_yS4xk5-14" value="volAvg: decimal" style="text;strokeColor=none;fillColor=none;align=left;verticalAlign=top;spacingLeft=4;spacingRight=4;overflow=hidden;rotatable=0;points=[[0,0.5],[1,0.5]];portConstraint=eastwest;whiteSpace=wrap;html=1;" vertex="1" parent="CWdaM1fvxtPjJ_yS4xk5-1">
          <mxGeometry y="360" width="200" height="28" as="geometry" />
        </mxCell>
        <mxCell id="CWdaM1fvxtPjJ_yS4xk5-15" value="eps: decimal" style="text;strokeColor=none;fillColor=none;align=left;verticalAlign=top;spacingLeft=4;spacingRight=4;overflow=hidden;rotatable=0;points=[[0,0.5],[1,0.5]];portConstraint=eastwest;whiteSpace=wrap;html=1;" vertex="1" parent="CWdaM1fvxtPjJ_yS4xk5-1">
          <mxGeometry y="388" width="200" height="28" as="geometry" />
        </mxCell>
        <mxCell id="CWdaM1fvxtPjJ_yS4xk5-16" value="pe: decimal" style="text;strokeColor=none;fillColor=none;align=left;verticalAlign=top;spacingLeft=4;spacingRight=4;overflow=hidden;rotatable=0;points=[[0,0.5],[1,0.5]];portConstraint=eastwest;whiteSpace=wrap;html=1;" vertex="1" parent="CWdaM1fvxtPjJ_yS4xk5-1">
          <mxGeometry y="416" width="200" height="28" as="geometry" />
        </mxCell>
        <mxCell id="CWdaM1fvxtPjJ_yS4xk5-17" value="company" style="swimlane;fontStyle=0;childLayout=stackLayout;horizontal=1;startSize=26;fillColor=none;horizontalStack=0;resizeParent=1;resizeParentMax=0;resizeLast=0;collapsible=1;marginBottom=0;whiteSpace=wrap;html=1;" vertex="1" parent="1">
          <mxGeometry x="500" y="40" width="200" height="104" as="geometry" />
        </mxCell>
        <mxCell id="CWdaM1fvxtPjJ_yS4xk5-18" value="id: bigint" style="text;strokeColor=none;fillColor=none;align=left;verticalAlign=top;spacingLeft=4;spacingRight=4;overflow=hidden;rotatable=0;points=[[0,0.5],[1,0.5]];portConstraint=eastwest;whiteSpace=wrap;html=1;" vertex="1" parent="CWdaM1fvxtPjJ_yS4xk5-17">
          <mxGeometry y="26" width="200" height="26" as="geometry" />
        </mxCell>
        <mxCell id="CWdaM1fvxtPjJ_yS4xk5-19" value="companyName: string" style="text;strokeColor=none;fillColor=none;align=left;verticalAlign=top;spacingLeft=4;spacingRight=4;overflow=hidden;rotatable=0;points=[[0,0.5],[1,0.5]];portConstraint=eastwest;whiteSpace=wrap;html=1;" vertex="1" parent="CWdaM1fvxtPjJ_yS4xk5-17">
          <mxGeometry y="52" width="200" height="26" as="geometry" />
        </mxCell>
        <mxCell id="CWdaM1fvxtPjJ_yS4xk5-20" value="symbol: string" style="text;strokeColor=none;fillColor=none;align=left;verticalAlign=top;spacingLeft=4;spacingRight=4;overflow=hidden;rotatable=0;points=[[0,0.5],[1,0.5]];portConstraint=eastwest;whiteSpace=wrap;html=1;" vertex="1" parent="CWdaM1fvxtPjJ_yS4xk5-17">
          <mxGeometry y="78" width="200" height="26" as="geometry" />
        </mxCell>
        <mxCell id="CWdaM1fvxtPjJ_yS4xk5-21" style="edgeStyle=orthogonalEdgeStyle;rounded=0;orthogonalLoop=1;jettySize=auto;html=1;exitX=1;exitY=0.5;exitDx=0;exitDy=0;endArrow=ERzeroToMany;endFill=0;startArrow=ERone;startFill=0;startSize=16;endSize=16;" edge="1" parent="1" source="CWdaM1fvxtPjJ_yS4xk5-22" target="CWdaM1fvxtPjJ_yS4xk5-41">
          <mxGeometry relative="1" as="geometry" />
        </mxCell>
        <mxCell id="CWdaM1fvxtPjJ_yS4xk5-22" value="commodity" style="swimlane;fontStyle=0;childLayout=stackLayout;horizontal=1;startSize=26;fillColor=none;horizontalStack=0;resizeParent=1;resizeParentMax=0;resizeLast=0;collapsible=1;marginBottom=0;whiteSpace=wrap;html=1;" vertex="1" parent="1">
          <mxGeometry x="470" y="560" width="140" height="104" as="geometry" />
        </mxCell>
        <mxCell id="CWdaM1fvxtPjJ_yS4xk5-23" value="id: bigint" style="text;strokeColor=none;fillColor=none;align=left;verticalAlign=top;spacingLeft=4;spacingRight=4;overflow=hidden;rotatable=0;points=[[0,0.5],[1,0.5]];portConstraint=eastwest;whiteSpace=wrap;html=1;" vertex="1" parent="CWdaM1fvxtPjJ_yS4xk5-22">
          <mxGeometry y="26" width="140" height="26" as="geometry" />
        </mxCell>
        <mxCell id="CWdaM1fvxtPjJ_yS4xk5-24" value="name: string" style="text;strokeColor=none;fillColor=none;align=left;verticalAlign=top;spacingLeft=4;spacingRight=4;overflow=hidden;rotatable=0;points=[[0,0.5],[1,0.5]];portConstraint=eastwest;whiteSpace=wrap;html=1;" vertex="1" parent="CWdaM1fvxtPjJ_yS4xk5-22">
          <mxGeometry y="52" width="140" height="26" as="geometry" />
        </mxCell>
        <mxCell id="CWdaM1fvxtPjJ_yS4xk5-25" value="symbol: string" style="text;strokeColor=none;fillColor=none;align=left;verticalAlign=top;spacingLeft=4;spacingRight=4;overflow=hidden;rotatable=0;points=[[0,0.5],[1,0.5]];portConstraint=eastwest;whiteSpace=wrap;html=1;" vertex="1" parent="CWdaM1fvxtPjJ_yS4xk5-22">
          <mxGeometry y="78" width="140" height="26" as="geometry" />
        </mxCell>
        <mxCell id="CWdaM1fvxtPjJ_yS4xk5-26" value="&lt;div&gt;index_value&lt;/div&gt;" style="swimlane;fontStyle=0;childLayout=stackLayout;horizontal=1;startSize=26;fillColor=none;horizontalStack=0;resizeParent=1;resizeParentMax=0;resizeLast=0;collapsible=1;marginBottom=0;whiteSpace=wrap;html=1;" vertex="1" parent="1">
          <mxGeometry x="430" y="738" width="190" height="390" as="geometry" />
        </mxCell>
        <mxCell id="CWdaM1fvxtPjJ_yS4xk5-27" value="index_id: bigint" style="text;strokeColor=none;fillColor=none;align=left;verticalAlign=top;spacingLeft=4;spacingRight=4;overflow=hidden;rotatable=0;points=[[0,0.5],[1,0.5]];portConstraint=eastwest;whiteSpace=wrap;html=1;" vertex="1" parent="CWdaM1fvxtPjJ_yS4xk5-26">
          <mxGeometry y="26" width="190" height="26" as="geometry" />
        </mxCell>
        <mxCell id="CWdaM1fvxtPjJ_yS4xk5-28" value="date: datetime" style="text;strokeColor=none;fillColor=none;align=left;verticalAlign=top;spacingLeft=4;spacingRight=4;overflow=hidden;rotatable=0;points=[[0,0.5],[1,0.5]];portConstraint=eastwest;whiteSpace=wrap;html=1;" vertex="1" parent="CWdaM1fvxtPjJ_yS4xk5-26">
          <mxGeometry y="52" width="190" height="26" as="geometry" />
        </mxCell>
        <mxCell id="CWdaM1fvxtPjJ_yS4xk5-29" value="price: decimal" style="text;strokeColor=none;fillColor=none;align=left;verticalAlign=top;spacingLeft=4;spacingRight=4;overflow=hidden;rotatable=0;points=[[0,0.5],[1,0.5]];portConstraint=eastwest;whiteSpace=wrap;html=1;" vertex="1" parent="CWdaM1fvxtPjJ_yS4xk5-26">
          <mxGeometry y="78" width="190" height="26" as="geometry" />
        </mxCell>
        <mxCell id="CWdaM1fvxtPjJ_yS4xk5-30" value="extendedPrice: decimal" style="text;strokeColor=none;fillColor=none;align=left;verticalAlign=top;spacingLeft=4;spacingRight=4;overflow=hidden;rotatable=0;points=[[0,0.5],[1,0.5]];portConstraint=eastwest;whiteSpace=wrap;html=1;" vertex="1" parent="CWdaM1fvxtPjJ_yS4xk5-26">
          <mxGeometry y="104" width="190" height="26" as="geometry" />
        </mxCell>
        <mxCell id="CWdaM1fvxtPjJ_yS4xk5-31" value="change: decimal" style="text;strokeColor=none;fillColor=none;align=left;verticalAlign=top;spacingLeft=4;spacingRight=4;overflow=hidden;rotatable=0;points=[[0,0.5],[1,0.5]];portConstraint=eastwest;whiteSpace=wrap;html=1;" vertex="1" parent="CWdaM1fvxtPjJ_yS4xk5-26">
          <mxGeometry y="130" width="190" height="26" as="geometry" />
        </mxCell>
        <mxCell id="CWdaM1fvxtPjJ_yS4xk5-32" value="dayHigh: decimal" style="text;strokeColor=none;fillColor=none;align=left;verticalAlign=top;spacingLeft=4;spacingRight=4;overflow=hidden;rotatable=0;points=[[0,0.5],[1,0.5]];portConstraint=eastwest;whiteSpace=wrap;html=1;" vertex="1" parent="CWdaM1fvxtPjJ_yS4xk5-26">
          <mxGeometry y="156" width="190" height="26" as="geometry" />
        </mxCell>
        <mxCell id="CWdaM1fvxtPjJ_yS4xk5-33" value="dayLow: decimal" style="text;strokeColor=none;fillColor=none;align=left;verticalAlign=top;spacingLeft=4;spacingRight=4;overflow=hidden;rotatable=0;points=[[0,0.5],[1,0.5]];portConstraint=eastwest;whiteSpace=wrap;html=1;" vertex="1" parent="CWdaM1fvxtPjJ_yS4xk5-26">
          <mxGeometry y="182" width="190" height="26" as="geometry" />
        </mxCell>
        <mxCell id="CWdaM1fvxtPjJ_yS4xk5-34" value="previousClose: decimal" style="text;strokeColor=none;fillColor=none;align=left;verticalAlign=top;spacingLeft=4;spacingRight=4;overflow=hidden;rotatable=0;points=[[0,0.5],[1,0.5]];portConstraint=eastwest;whiteSpace=wrap;html=1;" vertex="1" parent="CWdaM1fvxtPjJ_yS4xk5-26">
          <mxGeometry y="208" width="190" height="26" as="geometry" />
        </mxCell>
        <mxCell id="CWdaM1fvxtPjJ_yS4xk5-35" value="volume: decimal" style="text;strokeColor=none;fillColor=none;align=left;verticalAlign=top;spacingLeft=4;spacingRight=4;overflow=hidden;rotatable=0;points=[[0,0.5],[1,0.5]];portConstraint=eastwest;whiteSpace=wrap;html=1;" vertex="1" parent="CWdaM1fvxtPjJ_yS4xk5-26">
          <mxGeometry y="234" width="190" height="26" as="geometry" />
        </mxCell>
        <mxCell id="CWdaM1fvxtPjJ_yS4xk5-36" value="open: decimal" style="text;strokeColor=none;fillColor=none;align=left;verticalAlign=top;spacingLeft=4;spacingRight=4;overflow=hidden;rotatable=0;points=[[0,0.5],[1,0.5]];portConstraint=eastwest;whiteSpace=wrap;html=1;" vertex="1" parent="CWdaM1fvxtPjJ_yS4xk5-26">
          <mxGeometry y="260" width="190" height="26" as="geometry" />
        </mxCell>
        <mxCell id="CWdaM1fvxtPjJ_yS4xk5-37" value="close: decimal" style="text;strokeColor=none;fillColor=none;align=left;verticalAlign=top;spacingLeft=4;spacingRight=4;overflow=hidden;rotatable=0;points=[[0,0.5],[1,0.5]];portConstraint=eastwest;whiteSpace=wrap;html=1;" vertex="1" parent="CWdaM1fvxtPjJ_yS4xk5-26">
          <mxGeometry y="286" width="190" height="26" as="geometry" />
        </mxCell>
        <mxCell id="CWdaM1fvxtPjJ_yS4xk5-38" value="yearHigh: decimal" style="text;strokeColor=none;fillColor=none;align=left;verticalAlign=top;spacingLeft=4;spacingRight=4;overflow=hidden;rotatable=0;points=[[0,0.5],[1,0.5]];portConstraint=eastwest;whiteSpace=wrap;html=1;" vertex="1" parent="CWdaM1fvxtPjJ_yS4xk5-26">
          <mxGeometry y="312" width="190" height="26" as="geometry" />
        </mxCell>
        <mxCell id="CWdaM1fvxtPjJ_yS4xk5-39" value="yearLow: decimal" style="text;strokeColor=none;fillColor=none;align=left;verticalAlign=top;spacingLeft=4;spacingRight=4;overflow=hidden;rotatable=0;points=[[0,0.5],[1,0.5]];portConstraint=eastwest;whiteSpace=wrap;html=1;" vertex="1" parent="CWdaM1fvxtPjJ_yS4xk5-26">
          <mxGeometry y="338" width="190" height="26" as="geometry" />
        </mxCell>
        <mxCell id="CWdaM1fvxtPjJ_yS4xk5-40" value="changesPercentage: decimal" style="text;strokeColor=none;fillColor=none;align=left;verticalAlign=top;spacingLeft=4;spacingRight=4;overflow=hidden;rotatable=0;points=[[0,0.5],[1,0.5]];portConstraint=eastwest;whiteSpace=wrap;html=1;" vertex="1" parent="CWdaM1fvxtPjJ_yS4xk5-26">
          <mxGeometry y="364" width="190" height="26" as="geometry" />
        </mxCell>
        <mxCell id="CWdaM1fvxtPjJ_yS4xk5-41" value="commodity_value" style="swimlane;fontStyle=0;childLayout=stackLayout;horizontal=1;startSize=26;fillColor=none;horizontalStack=0;resizeParent=1;resizeParentMax=0;resizeLast=0;collapsible=1;marginBottom=0;whiteSpace=wrap;html=1;" vertex="1" parent="1">
          <mxGeometry x="860" y="570" width="180" height="364" as="geometry" />
        </mxCell>
        <mxCell id="CWdaM1fvxtPjJ_yS4xk5-42" value="commodity_id: bigint" style="text;strokeColor=none;fillColor=none;align=left;verticalAlign=top;spacingLeft=4;spacingRight=4;overflow=hidden;rotatable=0;points=[[0,0.5],[1,0.5]];portConstraint=eastwest;whiteSpace=wrap;html=1;" vertex="1" parent="CWdaM1fvxtPjJ_yS4xk5-41">
          <mxGeometry y="26" width="180" height="26" as="geometry" />
        </mxCell>
        <mxCell id="CWdaM1fvxtPjJ_yS4xk5-43" value="date: datetime" style="text;strokeColor=none;fillColor=none;align=left;verticalAlign=top;spacingLeft=4;spacingRight=4;overflow=hidden;rotatable=0;points=[[0,0.5],[1,0.5]];portConstraint=eastwest;whiteSpace=wrap;html=1;" vertex="1" parent="CWdaM1fvxtPjJ_yS4xk5-41">
          <mxGeometry y="52" width="180" height="26" as="geometry" />
        </mxCell>
        <mxCell id="CWdaM1fvxtPjJ_yS4xk5-44" value="open: decimal" style="text;strokeColor=none;fillColor=none;align=left;verticalAlign=top;spacingLeft=4;spacingRight=4;overflow=hidden;rotatable=0;points=[[0,0.5],[1,0.5]];portConstraint=eastwest;whiteSpace=wrap;html=1;" vertex="1" parent="CWdaM1fvxtPjJ_yS4xk5-41">
          <mxGeometry y="78" width="180" height="26" as="geometry" />
        </mxCell>
        <mxCell id="CWdaM1fvxtPjJ_yS4xk5-45" value="high: decimal" style="text;strokeColor=none;fillColor=none;align=left;verticalAlign=top;spacingLeft=4;spacingRight=4;overflow=hidden;rotatable=0;points=[[0,0.5],[1,0.5]];portConstraint=eastwest;whiteSpace=wrap;html=1;" vertex="1" parent="CWdaM1fvxtPjJ_yS4xk5-41">
          <mxGeometry y="104" width="180" height="26" as="geometry" />
        </mxCell>
        <mxCell id="CWdaM1fvxtPjJ_yS4xk5-46" value="low: decimal" style="text;strokeColor=none;fillColor=none;align=left;verticalAlign=top;spacingLeft=4;spacingRight=4;overflow=hidden;rotatable=0;points=[[0,0.5],[1,0.5]];portConstraint=eastwest;whiteSpace=wrap;html=1;" vertex="1" parent="CWdaM1fvxtPjJ_yS4xk5-41">
          <mxGeometry y="130" width="180" height="26" as="geometry" />
        </mxCell>
        <mxCell id="CWdaM1fvxtPjJ_yS4xk5-47" value="close: decimal" style="text;strokeColor=none;fillColor=none;align=left;verticalAlign=top;spacingLeft=4;spacingRight=4;overflow=hidden;rotatable=0;points=[[0,0.5],[1,0.5]];portConstraint=eastwest;whiteSpace=wrap;html=1;" vertex="1" parent="CWdaM1fvxtPjJ_yS4xk5-41">
          <mxGeometry y="156" width="180" height="26" as="geometry" />
        </mxCell>
        <mxCell id="CWdaM1fvxtPjJ_yS4xk5-48" value="adjClose: decimal" style="text;strokeColor=none;fillColor=none;align=left;verticalAlign=top;spacingLeft=4;spacingRight=4;overflow=hidden;rotatable=0;points=[[0,0.5],[1,0.5]];portConstraint=eastwest;whiteSpace=wrap;html=1;" vertex="1" parent="CWdaM1fvxtPjJ_yS4xk5-41">
          <mxGeometry y="182" width="180" height="26" as="geometry" />
        </mxCell>
        <mxCell id="CWdaM1fvxtPjJ_yS4xk5-49" value="volume: decimal" style="text;strokeColor=none;fillColor=none;align=left;verticalAlign=top;spacingLeft=4;spacingRight=4;overflow=hidden;rotatable=0;points=[[0,0.5],[1,0.5]];portConstraint=eastwest;whiteSpace=wrap;html=1;" vertex="1" parent="CWdaM1fvxtPjJ_yS4xk5-41">
          <mxGeometry y="208" width="180" height="26" as="geometry" />
        </mxCell>
        <mxCell id="CWdaM1fvxtPjJ_yS4xk5-50" value="unadjustedVolume: decimal" style="text;strokeColor=none;fillColor=none;align=left;verticalAlign=top;spacingLeft=4;spacingRight=4;overflow=hidden;rotatable=0;points=[[0,0.5],[1,0.5]];portConstraint=eastwest;whiteSpace=wrap;html=1;" vertex="1" parent="CWdaM1fvxtPjJ_yS4xk5-41">
          <mxGeometry y="234" width="180" height="26" as="geometry" />
        </mxCell>
        <mxCell id="CWdaM1fvxtPjJ_yS4xk5-51" value="change: integer" style="text;strokeColor=none;fillColor=none;align=left;verticalAlign=top;spacingLeft=4;spacingRight=4;overflow=hidden;rotatable=0;points=[[0,0.5],[1,0.5]];portConstraint=eastwest;whiteSpace=wrap;html=1;" vertex="1" parent="CWdaM1fvxtPjJ_yS4xk5-41">
          <mxGeometry y="260" width="180" height="26" as="geometry" />
        </mxCell>
        <mxCell id="CWdaM1fvxtPjJ_yS4xk5-52" value="changePercent: decimal" style="text;strokeColor=none;fillColor=none;align=left;verticalAlign=top;spacingLeft=4;spacingRight=4;overflow=hidden;rotatable=0;points=[[0,0.5],[1,0.5]];portConstraint=eastwest;whiteSpace=wrap;html=1;" vertex="1" parent="CWdaM1fvxtPjJ_yS4xk5-41">
          <mxGeometry y="286" width="180" height="26" as="geometry" />
        </mxCell>
        <mxCell id="CWdaM1fvxtPjJ_yS4xk5-53" value="vwap: decimal" style="text;strokeColor=none;fillColor=none;align=left;verticalAlign=top;spacingLeft=4;spacingRight=4;overflow=hidden;rotatable=0;points=[[0,0.5],[1,0.5]];portConstraint=eastwest;whiteSpace=wrap;html=1;" vertex="1" parent="CWdaM1fvxtPjJ_yS4xk5-41">
          <mxGeometry y="312" width="180" height="26" as="geometry" />
        </mxCell>
        <mxCell id="CWdaM1fvxtPjJ_yS4xk5-54" value="changeOverTime: decimal" style="text;strokeColor=none;fillColor=none;align=left;verticalAlign=top;spacingLeft=4;spacingRight=4;overflow=hidden;rotatable=0;points=[[0,0.5],[1,0.5]];portConstraint=eastwest;whiteSpace=wrap;html=1;" vertex="1" parent="CWdaM1fvxtPjJ_yS4xk5-41">
          <mxGeometry y="338" width="180" height="26" as="geometry" />
        </mxCell>
        <mxCell id="CWdaM1fvxtPjJ_yS4xk5-55" value="bond_value" style="swimlane;fontStyle=0;childLayout=stackLayout;horizontal=1;startSize=26;fillColor=none;horizontalStack=0;resizeParent=1;resizeParentMax=0;resizeLast=0;collapsible=1;marginBottom=0;whiteSpace=wrap;html=1;" vertex="1" parent="1">
          <mxGeometry x="645" y="390" width="140" height="104" as="geometry" />
        </mxCell>
        <mxCell id="CWdaM1fvxtPjJ_yS4xk5-56" value="bond_id: bigint" style="text;strokeColor=none;fillColor=none;align=left;verticalAlign=top;spacingLeft=4;spacingRight=4;overflow=hidden;rotatable=0;points=[[0,0.5],[1,0.5]];portConstraint=eastwest;whiteSpace=wrap;html=1;" vertex="1" parent="CWdaM1fvxtPjJ_yS4xk5-55">
          <mxGeometry y="26" width="140" height="26" as="geometry" />
        </mxCell>
        <mxCell id="CWdaM1fvxtPjJ_yS4xk5-57" value="date: datetime" style="text;strokeColor=none;fillColor=none;align=left;verticalAlign=top;spacingLeft=4;spacingRight=4;overflow=hidden;rotatable=0;points=[[0,0.5],[1,0.5]];portConstraint=eastwest;whiteSpace=wrap;html=1;" vertex="1" parent="CWdaM1fvxtPjJ_yS4xk5-55">
          <mxGeometry y="52" width="140" height="26" as="geometry" />
        </mxCell>
        <mxCell id="CWdaM1fvxtPjJ_yS4xk5-58" value="rate: decimal" style="text;strokeColor=none;fillColor=none;align=left;verticalAlign=top;spacingLeft=4;spacingRight=4;overflow=hidden;rotatable=0;points=[[0,0.5],[1,0.5]];portConstraint=eastwest;whiteSpace=wrap;html=1;" vertex="1" parent="CWdaM1fvxtPjJ_yS4xk5-55">
          <mxGeometry y="78" width="140" height="26" as="geometry" />
        </mxCell>
        <mxCell id="CWdaM1fvxtPjJ_yS4xk5-59" value="bond" style="swimlane;fontStyle=1;childLayout=stackLayout;horizontal=1;startSize=26;fillColor=none;horizontalStack=0;resizeParent=1;resizeParentMax=0;resizeLast=0;collapsible=1;marginBottom=0;whiteSpace=wrap;html=1;" vertex="1" parent="1">
          <mxGeometry x="505" y="210" width="140" height="130" as="geometry" />
        </mxCell>
        <mxCell id="CWdaM1fvxtPjJ_yS4xk5-60" value="id: bigint" style="text;strokeColor=none;fillColor=none;align=left;verticalAlign=top;spacingLeft=4;spacingRight=4;overflow=hidden;rotatable=0;points=[[0,0.5],[1,0.5]];portConstraint=eastwest;whiteSpace=wrap;html=1;" vertex="1" parent="CWdaM1fvxtPjJ_yS4xk5-59">
          <mxGeometry y="26" width="140" height="26" as="geometry" />
        </mxCell>
        <mxCell id="CWdaM1fvxtPjJ_yS4xk5-61" value="country: string" style="text;strokeColor=none;fillColor=none;align=left;verticalAlign=top;spacingLeft=4;spacingRight=4;overflow=hidden;rotatable=0;points=[[0,0.5],[1,0.5]];portConstraint=eastwest;whiteSpace=wrap;html=1;" vertex="1" parent="CWdaM1fvxtPjJ_yS4xk5-59">
          <mxGeometry y="52" width="140" height="26" as="geometry" />
        </mxCell>
        <mxCell id="CWdaM1fvxtPjJ_yS4xk5-62" value="duration: string" style="text;strokeColor=none;fillColor=none;align=left;verticalAlign=top;spacingLeft=4;spacingRight=4;overflow=hidden;rotatable=0;points=[[0,0.5],[1,0.5]];portConstraint=eastwest;whiteSpace=wrap;html=1;" vertex="1" parent="CWdaM1fvxtPjJ_yS4xk5-59">
          <mxGeometry y="78" width="140" height="26" as="geometry" />
        </mxCell>
        <mxCell id="CWdaM1fvxtPjJ_yS4xk5-63" value="currency: string" style="text;strokeColor=none;fillColor=none;align=left;verticalAlign=top;spacingLeft=4;spacingRight=4;overflow=hidden;rotatable=0;points=[[0,0.5],[1,0.5]];portConstraint=eastwest;whiteSpace=wrap;html=1;" vertex="1" parent="CWdaM1fvxtPjJ_yS4xk5-59">
          <mxGeometry y="104" width="140" height="26" as="geometry" />
        </mxCell>
        <mxCell id="CWdaM1fvxtPjJ_yS4xk5-64" value="company_statement" style="swimlane;fontStyle=0;childLayout=stackLayout;horizontal=1;startSize=26;fillColor=none;horizontalStack=0;resizeParent=1;resizeParentMax=0;resizeLast=0;collapsible=1;marginBottom=0;whiteSpace=wrap;html=1;" vertex="1" parent="1">
          <mxGeometry x="830" y="40" width="210" height="390" as="geometry" />
        </mxCell>
        <mxCell id="CWdaM1fvxtPjJ_yS4xk5-65" value="company_id: bigint" style="text;strokeColor=none;fillColor=none;align=left;verticalAlign=top;spacingLeft=4;spacingRight=4;overflow=hidden;rotatable=0;points=[[0,0.5],[1,0.5]];portConstraint=eastwest;whiteSpace=wrap;html=1;" vertex="1" parent="CWdaM1fvxtPjJ_yS4xk5-64">
          <mxGeometry y="26" width="210" height="26" as="geometry" />
        </mxCell>
        <mxCell id="CWdaM1fvxtPjJ_yS4xk5-66" value="date: datetime" style="text;strokeColor=none;fillColor=none;align=left;verticalAlign=top;spacingLeft=4;spacingRight=4;overflow=hidden;rotatable=0;points=[[0,0.5],[1,0.5]];portConstraint=eastwest;whiteSpace=wrap;html=1;" vertex="1" parent="CWdaM1fvxtPjJ_yS4xk5-64">
          <mxGeometry y="52" width="210" height="26" as="geometry" />
        </mxCell>
        <mxCell id="CWdaM1fvxtPjJ_yS4xk5-67" value="sector: string" style="text;strokeColor=none;fillColor=none;align=left;verticalAlign=top;spacingLeft=4;spacingRight=4;overflow=hidden;rotatable=0;points=[[0,0.5],[1,0.5]];portConstraint=eastwest;whiteSpace=wrap;html=1;" vertex="1" parent="CWdaM1fvxtPjJ_yS4xk5-64">
          <mxGeometry y="78" width="210" height="26" as="geometry" />
        </mxCell>
        <mxCell id="CWdaM1fvxtPjJ_yS4xk5-68" value="industry: string" style="text;strokeColor=none;fillColor=none;align=left;verticalAlign=top;spacingLeft=4;spacingRight=4;overflow=hidden;rotatable=0;points=[[0,0.5],[1,0.5]];portConstraint=eastwest;whiteSpace=wrap;html=1;" vertex="1" parent="CWdaM1fvxtPjJ_yS4xk5-64">
          <mxGeometry y="104" width="210" height="26" as="geometry" />
        </mxCell>
        <mxCell id="CWdaM1fvxtPjJ_yS4xk5-69" value="fullTimeEmployees: integer" style="text;strokeColor=none;fillColor=none;align=left;verticalAlign=top;spacingLeft=4;spacingRight=4;overflow=hidden;rotatable=0;points=[[0,0.5],[1,0.5]];portConstraint=eastwest;whiteSpace=wrap;html=1;" vertex="1" parent="CWdaM1fvxtPjJ_yS4xk5-64">
          <mxGeometry y="130" width="210" height="26" as="geometry" />
        </mxCell>
        <mxCell id="CWdaM1fvxtPjJ_yS4xk5-70" value="marketCap: long" style="text;strokeColor=none;fillColor=none;align=left;verticalAlign=top;spacingLeft=4;spacingRight=4;overflow=hidden;rotatable=0;points=[[0,0.5],[1,0.5]];portConstraint=eastwest;whiteSpace=wrap;html=1;" vertex="1" parent="CWdaM1fvxtPjJ_yS4xk5-64">
          <mxGeometry y="156" width="210" height="26" as="geometry" />
        </mxCell>
        <mxCell id="CWdaM1fvxtPjJ_yS4xk5-71" value="trailingPE: decimal" style="text;strokeColor=none;fillColor=none;align=left;verticalAlign=top;spacingLeft=4;spacingRight=4;overflow=hidden;rotatable=0;points=[[0,0.5],[1,0.5]];portConstraint=eastwest;whiteSpace=wrap;html=1;" vertex="1" parent="CWdaM1fvxtPjJ_yS4xk5-64">
          <mxGeometry y="182" width="210" height="26" as="geometry" />
        </mxCell>
        <mxCell id="CWdaM1fvxtPjJ_yS4xk5-72" value="shortOfFloat: decimal" style="text;strokeColor=none;fillColor=none;align=left;verticalAlign=top;spacingLeft=4;spacingRight=4;overflow=hidden;rotatable=0;points=[[0,0.5],[1,0.5]];portConstraint=eastwest;whiteSpace=wrap;html=1;" vertex="1" parent="CWdaM1fvxtPjJ_yS4xk5-64">
          <mxGeometry y="208" width="210" height="26" as="geometry" />
        </mxCell>
        <mxCell id="CWdaM1fvxtPjJ_yS4xk5-73" value="trailingAnnualDividendYield: decimal" style="text;strokeColor=none;fillColor=none;align=left;verticalAlign=top;spacingLeft=4;spacingRight=4;overflow=hidden;rotatable=0;points=[[0,0.5],[1,0.5]];portConstraint=eastwest;whiteSpace=wrap;html=1;" vertex="1" parent="CWdaM1fvxtPjJ_yS4xk5-64">
          <mxGeometry y="234" width="210" height="26" as="geometry" />
        </mxCell>
        <mxCell id="CWdaM1fvxtPjJ_yS4xk5-74" value="enterpriseValue: decimal" style="text;strokeColor=none;fillColor=none;align=left;verticalAlign=top;spacingLeft=4;spacingRight=4;overflow=hidden;rotatable=0;points=[[0,0.5],[1,0.5]];portConstraint=eastwest;whiteSpace=wrap;html=1;" vertex="1" parent="CWdaM1fvxtPjJ_yS4xk5-64">
          <mxGeometry y="260" width="210" height="26" as="geometry" />
        </mxCell>
        <mxCell id="CWdaM1fvxtPjJ_yS4xk5-75" value="netIncome: decimal" style="text;strokeColor=none;fillColor=none;align=left;verticalAlign=top;spacingLeft=4;spacingRight=4;overflow=hidden;rotatable=0;points=[[0,0.5],[1,0.5]];portConstraint=eastwest;whiteSpace=wrap;html=1;" vertex="1" parent="CWdaM1fvxtPjJ_yS4xk5-64">
          <mxGeometry y="286" width="210" height="26" as="geometry" />
        </mxCell>
        <mxCell id="CWdaM1fvxtPjJ_yS4xk5-76" value="revenue: decimal" style="text;strokeColor=none;fillColor=none;align=left;verticalAlign=top;spacingLeft=4;spacingRight=4;overflow=hidden;rotatable=0;points=[[0,0.5],[1,0.5]];portConstraint=eastwest;whiteSpace=wrap;html=1;" vertex="1" parent="CWdaM1fvxtPjJ_yS4xk5-64">
          <mxGeometry y="312" width="210" height="26" as="geometry" />
        </mxCell>
        <mxCell id="CWdaM1fvxtPjJ_yS4xk5-77" value="returnOnAssets: decimal" style="text;strokeColor=none;fillColor=none;align=left;verticalAlign=top;spacingLeft=4;spacingRight=4;overflow=hidden;rotatable=0;points=[[0,0.5],[1,0.5]];portConstraint=eastwest;whiteSpace=wrap;html=1;" vertex="1" parent="CWdaM1fvxtPjJ_yS4xk5-64">
          <mxGeometry y="338" width="210" height="26" as="geometry" />
        </mxCell>
        <mxCell id="CWdaM1fvxtPjJ_yS4xk5-78" value="returnOnEquity: decimal" style="text;strokeColor=none;fillColor=none;align=left;verticalAlign=top;spacingLeft=4;spacingRight=4;overflow=hidden;rotatable=0;points=[[0,0.5],[1,0.5]];portConstraint=eastwest;whiteSpace=wrap;html=1;" vertex="1" parent="CWdaM1fvxtPjJ_yS4xk5-64">
          <mxGeometry y="364" width="210" height="26" as="geometry" />
        </mxCell>
        <mxCell id="CWdaM1fvxtPjJ_yS4xk5-79" value="index" style="swimlane;fontStyle=0;childLayout=stackLayout;horizontal=1;startSize=26;fillColor=none;horizontalStack=0;resizeParent=1;resizeParentMax=0;resizeLast=0;collapsible=1;marginBottom=0;whiteSpace=wrap;html=1;" vertex="1" parent="1">
          <mxGeometry x="700" y="1040" width="140" height="104" as="geometry" />
        </mxCell>
        <mxCell id="CWdaM1fvxtPjJ_yS4xk5-80" value="id: bigint" style="text;strokeColor=none;fillColor=none;align=left;verticalAlign=top;spacingLeft=4;spacingRight=4;overflow=hidden;rotatable=0;points=[[0,0.5],[1,0.5]];portConstraint=eastwest;whiteSpace=wrap;html=1;" vertex="1" parent="CWdaM1fvxtPjJ_yS4xk5-79">
          <mxGeometry y="26" width="140" height="26" as="geometry" />
        </mxCell>
        <mxCell id="CWdaM1fvxtPjJ_yS4xk5-81" value="name: string" style="text;strokeColor=none;fillColor=none;align=left;verticalAlign=top;spacingLeft=4;spacingRight=4;overflow=hidden;rotatable=0;points=[[0,0.5],[1,0.5]];portConstraint=eastwest;whiteSpace=wrap;html=1;" vertex="1" parent="CWdaM1fvxtPjJ_yS4xk5-79">
          <mxGeometry y="52" width="140" height="26" as="geometry" />
        </mxCell>
        <mxCell id="CWdaM1fvxtPjJ_yS4xk5-82" value="symbol: string" style="text;strokeColor=none;fillColor=none;align=left;verticalAlign=top;spacingLeft=4;spacingRight=4;overflow=hidden;rotatable=0;points=[[0,0.5],[1,0.5]];portConstraint=eastwest;whiteSpace=wrap;html=1;" vertex="1" parent="CWdaM1fvxtPjJ_yS4xk5-79">
          <mxGeometry y="78" width="140" height="26" as="geometry" />
        </mxCell>
        <mxCell id="CWdaM1fvxtPjJ_yS4xk5-83" style="edgeStyle=orthogonalEdgeStyle;rounded=0;orthogonalLoop=1;jettySize=auto;html=1;exitX=0;exitY=0.5;exitDx=0;exitDy=0;endArrow=ERzeroToMany;endFill=0;endSize=16;startArrow=ERone;startFill=0;startSize=16;" edge="1" parent="1" source="CWdaM1fvxtPjJ_yS4xk5-81" target="CWdaM1fvxtPjJ_yS4xk5-26">
          <mxGeometry relative="1" as="geometry" />
        </mxCell>
        <mxCell id="CWdaM1fvxtPjJ_yS4xk5-84" style="edgeStyle=orthogonalEdgeStyle;rounded=0;orthogonalLoop=1;jettySize=auto;html=1;exitX=1;exitY=0.5;exitDx=0;exitDy=0;endArrow=ERzeroToMany;endFill=0;startArrow=ERone;startFill=0;startSize=16;endSize=16;" edge="1" parent="1" source="CWdaM1fvxtPjJ_yS4xk5-61" target="CWdaM1fvxtPjJ_yS4xk5-55">
          <mxGeometry relative="1" as="geometry" />
        </mxCell>
        <mxCell id="CWdaM1fvxtPjJ_yS4xk5-85" style="edgeStyle=orthogonalEdgeStyle;rounded=0;orthogonalLoop=1;jettySize=auto;html=1;endArrow=ERzeroToMany;endFill=0;endSize=16;startSize=16;startArrow=ERone;startFill=0;" edge="1" parent="1" source="CWdaM1fvxtPjJ_yS4xk5-18" target="CWdaM1fvxtPjJ_yS4xk5-65">
          <mxGeometry relative="1" as="geometry" />
        </mxCell>
        <mxCell id="CWdaM1fvxtPjJ_yS4xk5-86" value="realtime_stock_value" style="swimlane;fontStyle=0;childLayout=stackLayout;horizontal=1;startSize=26;fillColor=none;horizontalStack=0;resizeParent=1;resizeParentMax=0;resizeLast=0;collapsible=1;marginBottom=0;whiteSpace=wrap;html=1;" vertex="1" parent="1">
          <mxGeometry x="150" y="40" width="200" height="444" as="geometry" />
        </mxCell>
        <mxCell id="CWdaM1fvxtPjJ_yS4xk5-87" value="company_id: bigint" style="text;strokeColor=none;fillColor=none;align=left;verticalAlign=top;spacingLeft=4;spacingRight=4;overflow=hidden;rotatable=0;points=[[0,0.5],[1,0.5]];portConstraint=eastwest;whiteSpace=wrap;html=1;" vertex="1" parent="CWdaM1fvxtPjJ_yS4xk5-86">
          <mxGeometry y="26" width="200" height="26" as="geometry" />
        </mxCell>
        <mxCell id="CWdaM1fvxtPjJ_yS4xk5-88" value="&lt;div&gt;date: datetime&lt;/div&gt;" style="text;strokeColor=none;fillColor=none;align=left;verticalAlign=top;spacingLeft=4;spacingRight=4;overflow=hidden;rotatable=0;points=[[0,0.5],[1,0.5]];portConstraint=eastwest;whiteSpace=wrap;html=1;" vertex="1" parent="CWdaM1fvxtPjJ_yS4xk5-86">
          <mxGeometry y="52" width="200" height="28" as="geometry" />
        </mxCell>
        <mxCell id="CWdaM1fvxtPjJ_yS4xk5-89" value="price: decimal" style="text;strokeColor=none;fillColor=none;align=left;verticalAlign=top;spacingLeft=4;spacingRight=4;overflow=hidden;rotatable=0;points=[[0,0.5],[1,0.5]];portConstraint=eastwest;whiteSpace=wrap;html=1;" vertex="1" parent="CWdaM1fvxtPjJ_yS4xk5-86">
          <mxGeometry y="80" width="200" height="28" as="geometry" />
        </mxCell>
        <mxCell id="CWdaM1fvxtPjJ_yS4xk5-90" value="changesPercentage: decimal" style="text;strokeColor=none;fillColor=none;align=left;verticalAlign=top;spacingLeft=4;spacingRight=4;overflow=hidden;rotatable=0;points=[[0,0.5],[1,0.5]];portConstraint=eastwest;whiteSpace=wrap;html=1;" vertex="1" parent="CWdaM1fvxtPjJ_yS4xk5-86">
          <mxGeometry y="108" width="200" height="28" as="geometry" />
        </mxCell>
        <mxCell id="CWdaM1fvxtPjJ_yS4xk5-91" value="change: decimal" style="text;strokeColor=none;fillColor=none;align=left;verticalAlign=top;spacingLeft=4;spacingRight=4;overflow=hidden;rotatable=0;points=[[0,0.5],[1,0.5]];portConstraint=eastwest;whiteSpace=wrap;html=1;" vertex="1" parent="CWdaM1fvxtPjJ_yS4xk5-86">
          <mxGeometry y="136" width="200" height="28" as="geometry" />
        </mxCell>
        <mxCell id="CWdaM1fvxtPjJ_yS4xk5-92" value="dayHigh: decimal" style="text;strokeColor=none;fillColor=none;align=left;verticalAlign=top;spacingLeft=4;spacingRight=4;overflow=hidden;rotatable=0;points=[[0,0.5],[1,0.5]];portConstraint=eastwest;whiteSpace=wrap;html=1;" vertex="1" parent="CWdaM1fvxtPjJ_yS4xk5-86">
          <mxGeometry y="164" width="200" height="28" as="geometry" />
        </mxCell>
        <mxCell id="CWdaM1fvxtPjJ_yS4xk5-93" value="dayLow: decimal" style="text;strokeColor=none;fillColor=none;align=left;verticalAlign=top;spacingLeft=4;spacingRight=4;overflow=hidden;rotatable=0;points=[[0,0.5],[1,0.5]];portConstraint=eastwest;whiteSpace=wrap;html=1;" vertex="1" parent="CWdaM1fvxtPjJ_yS4xk5-86">
          <mxGeometry y="192" width="200" height="28" as="geometry" />
        </mxCell>
        <mxCell id="CWdaM1fvxtPjJ_yS4xk5-94" value="yearHigh: decimal" style="text;strokeColor=none;fillColor=none;align=left;verticalAlign=top;spacingLeft=4;spacingRight=4;overflow=hidden;rotatable=0;points=[[0,0.5],[1,0.5]];portConstraint=eastwest;whiteSpace=wrap;html=1;" vertex="1" parent="CWdaM1fvxtPjJ_yS4xk5-86">
          <mxGeometry y="220" width="200" height="28" as="geometry" />
        </mxCell>
        <mxCell id="CWdaM1fvxtPjJ_yS4xk5-95" value="yearLow: decimal" style="text;strokeColor=none;fillColor=none;align=left;verticalAlign=top;spacingLeft=4;spacingRight=4;overflow=hidden;rotatable=0;points=[[0,0.5],[1,0.5]];portConstraint=eastwest;whiteSpace=wrap;html=1;" vertex="1" parent="CWdaM1fvxtPjJ_yS4xk5-86">
          <mxGeometry y="248" width="200" height="28" as="geometry" />
        </mxCell>
        <mxCell id="CWdaM1fvxtPjJ_yS4xk5-96" value="mktCap: long" style="text;strokeColor=none;fillColor=none;align=left;verticalAlign=top;spacingLeft=4;spacingRight=4;overflow=hidden;rotatable=0;points=[[0,0.5],[1,0.5]];portConstraint=eastwest;whiteSpace=wrap;html=1;" vertex="1" parent="CWdaM1fvxtPjJ_yS4xk5-86">
          <mxGeometry y="276" width="200" height="28" as="geometry" />
        </mxCell>
        <mxCell id="CWdaM1fvxtPjJ_yS4xk5-97" value="open: decimal" style="text;strokeColor=none;fillColor=none;align=left;verticalAlign=top;spacingLeft=4;spacingRight=4;overflow=hidden;rotatable=0;points=[[0,0.5],[1,0.5]];portConstraint=eastwest;whiteSpace=wrap;html=1;" vertex="1" parent="CWdaM1fvxtPjJ_yS4xk5-86">
          <mxGeometry y="304" width="200" height="28" as="geometry" />
        </mxCell>
        <mxCell id="CWdaM1fvxtPjJ_yS4xk5-98" value="prevClose: decimal" style="text;strokeColor=none;fillColor=none;align=left;verticalAlign=top;spacingLeft=4;spacingRight=4;overflow=hidden;rotatable=0;points=[[0,0.5],[1,0.5]];portConstraint=eastwest;whiteSpace=wrap;html=1;" vertex="1" parent="CWdaM1fvxtPjJ_yS4xk5-86">
          <mxGeometry y="332" width="200" height="28" as="geometry" />
        </mxCell>
        <mxCell id="CWdaM1fvxtPjJ_yS4xk5-99" value="volAvg: decimal" style="text;strokeColor=none;fillColor=none;align=left;verticalAlign=top;spacingLeft=4;spacingRight=4;overflow=hidden;rotatable=0;points=[[0,0.5],[1,0.5]];portConstraint=eastwest;whiteSpace=wrap;html=1;" vertex="1" parent="CWdaM1fvxtPjJ_yS4xk5-86">
          <mxGeometry y="360" width="200" height="28" as="geometry" />
        </mxCell>
        <mxCell id="CWdaM1fvxtPjJ_yS4xk5-100" value="eps: decimal" style="text;strokeColor=none;fillColor=none;align=left;verticalAlign=top;spacingLeft=4;spacingRight=4;overflow=hidden;rotatable=0;points=[[0,0.5],[1,0.5]];portConstraint=eastwest;whiteSpace=wrap;html=1;" vertex="1" parent="CWdaM1fvxtPjJ_yS4xk5-86">
          <mxGeometry y="388" width="200" height="28" as="geometry" />
        </mxCell>
        <mxCell id="CWdaM1fvxtPjJ_yS4xk5-101" value="pe: decimal" style="text;strokeColor=none;fillColor=none;align=left;verticalAlign=top;spacingLeft=4;spacingRight=4;overflow=hidden;rotatable=0;points=[[0,0.5],[1,0.5]];portConstraint=eastwest;whiteSpace=wrap;html=1;" vertex="1" parent="CWdaM1fvxtPjJ_yS4xk5-86">
          <mxGeometry y="416" width="200" height="28" as="geometry" />
        </mxCell>
        <mxCell id="CWdaM1fvxtPjJ_yS4xk5-107" style="edgeStyle=orthogonalEdgeStyle;rounded=0;orthogonalLoop=1;jettySize=auto;html=1;exitX=1;exitY=0.5;exitDx=0;exitDy=0;entryX=0.999;entryY=0.929;entryDx=0;entryDy=0;entryPerimeter=0;" edge="1" parent="CWdaM1fvxtPjJ_yS4xk5-86" source="CWdaM1fvxtPjJ_yS4xk5-92" target="CWdaM1fvxtPjJ_yS4xk5-92">
          <mxGeometry relative="1" as="geometry" />
        </mxCell>
        <mxCell id="CWdaM1fvxtPjJ_yS4xk5-102" style="edgeStyle=orthogonalEdgeStyle;rounded=0;orthogonalLoop=1;jettySize=auto;html=1;entryX=0;entryY=0.5;entryDx=0;entryDy=0;endArrow=ERone;endFill=0;startArrow=ERzeroToMany;startFill=0;endSize=16;startSize=16;" edge="1" parent="1" source="CWdaM1fvxtPjJ_yS4xk5-87" target="CWdaM1fvxtPjJ_yS4xk5-18">
          <mxGeometry relative="1" as="geometry" />
        </mxCell>
        <mxCell id="CWdaM1fvxtPjJ_yS4xk5-103" style="edgeStyle=orthogonalEdgeStyle;rounded=0;orthogonalLoop=1;jettySize=auto;html=1;endSize=16;startSize=16;endArrow=ERone;endFill=0;startArrow=ERzeroToMany;startFill=0;" edge="1" parent="1" source="CWdaM1fvxtPjJ_yS4xk5-2" target="CWdaM1fvxtPjJ_yS4xk5-18">
          <mxGeometry relative="1" as="geometry" />
        </mxCell>
      </root>
    </mxGraphModel>
  </diagram>
</mxfile>
